<?xml version="1.0" encoding="utf-8"?>
<!-- Generator: Adobe Illustrator 24.3.0, SVG Export Plug-In . SVG Version: 6.00 Build 0)  -->
<svg version="1.1" id="Layer_1" xmlns="http://www.w3.org/2000/svg" xmlns:xlink="http://www.w3.org/1999/xlink" x="0px" y="0px"
	 viewBox="0 0 93.36 81.42" style="enable-background:new 0 0 93.36 81.42;" xml:space="preserve">
<style type="text/css">
	.st0{fill:#C31F39;}
</style>
<path d="M41.07,26.33c0.31-0.99,0.64-1.82,0.81-2.69c0.06-0.29-0.19-0.73-0.43-0.98c-2.76-2.79-5.54-5.55-8.31-8.32
	c-0.31-0.3-0.6-0.62-0.91-0.92c-0.52-0.51-0.72-1.09-0.18-1.66c0.56-0.59,1.14-0.36,1.65,0.15c1.67,1.67,3.34,3.33,5,5
	c1.54,1.55,3.07,3.11,4.65,4.71C46.2,19.4,49,19.38,51.9,21.6c1.25-1.24,2.52-2.49,3.78-3.74c1.93-1.92,3.86-3.84,5.78-5.77
	c0.53-0.54,1.12-0.99,1.79-0.32c0.65,0.65,0.26,1.25-0.29,1.8c-3.01,3-6.01,6.01-9.04,9c-0.48,0.47-0.73,0.88-0.37,1.54
	c0.19,0.34,0.34,0.76,0.33,1.13c-0.02,0.95,0.43,1.1,1.29,1.1c6.28-0.03,12.55-0.03,18.83,0c3.18,0.02,5.47,2.27,5.52,5.45
	c0.06,4.05,0,8.1,0,12.15c0,5.78,0,11.55,0,17.33c0,1.46,0.01,2.92-0.03,4.38c-0.06,2.22-1.22,3.8-3.16,4.69
	c-0.89,0.41-1.22,0.84-1.1,1.75c0.03,0.25-0.03,0.52-0.05,0.84c-0.65,0-1.27,0-1.97,0c-0.04-0.66-0.08-1.31-0.13-2.09
	c-1.68,0-3.33,0-4.98,0c-14.81,0-29.62,0-44.43,0c-1.49,0-1.49,0.01-1.59,1.53c-0.01,0.16-0.05,0.32-0.09,0.54c-0.6,0-1.19,0-1.79,0
	c-0.03-0.03-0.12-0.08-0.12-0.12c0.26-1.49-0.5-2.2-1.78-2.86c-1.75-0.9-2.55-2.58-2.55-4.55c-0.02-7.24,0.01-14.48,0.01-21.71
	c0-3.85,0-7.7,0.01-11.55c0.01-3.59,2.27-5.83,5.86-5.83c5.88,0.01,11.75,0.01,17.63,0.02C39.9,26.33,40.52,26.33,41.07,26.33z
	 M47.61,28.38C47.61,28.38,47.61,28.38,47.61,28.38c-4.32-0.01-8.64-0.01-12.95-0.01c-4.45,0-8.9-0.01-13.35,0.02
	c-2.27,0.02-3.41,1.19-3.45,3.47c-0.01,0.27-0.01,0.53-0.01,0.8c0,10.8,0,21.59,0,32.39c0,2.58,1.13,3.76,3.68,3.76
	c17.47,0.01,34.94,0.01,52.41,0c2.27,0,3.51-1.26,3.51-3.53c0-11.06,0-22.12-0.01-33.18c0-2.55-1.18-3.71-3.72-3.71
	C65.02,28.38,56.31,28.38,47.61,28.38z M51.87,26.25c0.03-1.59-0.61-2.79-1.87-3.56c-1.57-0.97-3.25-0.96-4.81,0.05
	c-1.2,0.78-1.83,1.95-1.79,3.51C46.23,26.25,48.98,26.25,51.87,26.25z"/>
<path class="st0" d="M43.12,65.64c-6.38,0-12.75,0-19.13,0c-1.39,0-1.56-0.17-1.56-1.54c0-9.73,0-19.46,0-29.19
	c0-1.39,0.17-1.56,1.54-1.56c12.78,0,25.57,0,38.35,0c1.39,0,1.56,0.17,1.56,1.54c0,9.73,0,19.46,0,29.19
	c0,1.39-0.17,1.56-1.54,1.56C55.94,65.64,49.53,65.64,43.12,65.64z M24.1,34.99c0,9.72,0,19.36,0,28.98c12.77,0,25.47,0,38.14,0
	c0-9.7,0-19.32,0-28.98C49.51,34.99,36.84,34.99,24.1,34.99z"/>
</svg>
