<?xml version="1.0" encoding="utf-8"?>
<!-- Generator: Adobe Illustrator 24.3.0, SVG Export Plug-In . SVG Version: 6.00 Build 0)  -->
<svg version="1.1" id="Layer_1" xmlns="http://www.w3.org/2000/svg" xmlns:xlink="http://www.w3.org/1999/xlink" x="0px" y="0px"
	 viewBox="0 0 93.36 81.42" style="enable-background:new 0 0 93.36 81.42;" xml:space="preserve">
<style type="text/css">
	.st0{fill:#231F20;}
</style>
<g>
	<g>
		<path class="st0" d="M22.61,17.99c-0.02,2.81,1.41,5.02,2.26,7.6c0.66,1.99,1.04,4.13,2.31,5.86c0.6,0.82,1.39,1.56,2.39,1.83
			c0.49,0.13,1.01,0.14,1.51,0.15c0.29,0,0.6-0.02,0.89,0.02c0.09,0.02,0.18,0.03,0.27,0.05c0.3,0.11,0.3,0.07-0.02-0.12
			c0.77,2.06,1.47,4,2.61,5.9c1.09,1.83,2.25,3.78,3.87,5.2c1.66,1.45,3.7,2.11,5.78,2.71c2.35,0.68,4.97,1.19,7.38,0.52
			c1.94-0.54,3.65-1.75,5.01-3.2c2.97-3.17,4.8-7.51,5.44-11.77c0.81-5.4-0.11-10.83,0.31-16.24c0.14-1.84,0.56-4.42-0.5-6.08
			c-0.97-1.52-3.17-1.54-4.76-1.53c-5.28,0.03-10.51-0.39-15.77,0.2c-1.33,0.15-2.69,0.32-4.03,0.25c-0.98-0.05-1.96-0.22-2.94-0.1
			c-2.07,0.26-2.04,2.5-2.39,4.13c-0.26,1.24-0.04,1.5-1.35,1.43c-1.24-0.06-2.39-0.12-3.61,0.14c-2.01,0.42-4.09,1.32-4.88,3.35
			c-0.58,1.5,1.83,2.15,2.41,0.66c0.48-1.22,2.88-1.65,4-1.74c1.66-0.12,3.79,0.65,5.03-0.87c0.87-1.07,0.87-2.81,1.15-4.11
			c0.03-0.15,0.14-0.42,0.13-0.56c-0.03-0.61,0.3,0.31-0.21,0.03c0.16,0.09,0.63,0,0.84,0c0.72,0.03,1.44,0.13,2.16,0.15
			c2.46,0.06,4.9-0.51,7.36-0.62c2.6-0.11,5.22,0.02,7.82,0.1c1.82,0.05,3.67-0.05,5.48,0.08c0.4,0.03,1.19,0.05,1.47,0.36
			c0.45,0.49,0.25,2.15,0.22,2.79c-0.08,2.11-0.29,4.17-0.24,6.29c0.06,2.55,0.23,5.11,0.17,7.66c-0.1,4.28-1.07,8.43-3.39,12.06
			c-0.96,1.5-2.17,2.94-3.69,3.89c-1.88,1.17-3.93,1.24-6.06,0.8c-1.93-0.4-4.14-0.93-5.83-2c-1.57-1.01-2.61-2.64-3.58-4.2
			c-1.26-2.03-2.17-4.03-2.97-6.28c-0.7-2-2.35-1.61-4.08-1.86c-2.1-0.3-2.64-3.87-3.13-5.51c-0.75-2.5-2.34-4.74-2.33-7.42
			C25.12,16.38,22.62,16.38,22.61,17.99L22.61,17.99z"/>
	</g>
</g>
<g>
	<g>
		<path class="st0" d="M32.41,12.67c0.64,3.15,0.16,6.46,0.14,9.64c-0.03,3.63-0.35,7.26-0.36,10.89c-0.01,1.61,2.49,1.61,2.5,0
			c0.01-3.77,0.33-7.53,0.37-11.3c0.03-3.3,0.44-6.63-0.23-9.9C34.5,10.43,32.09,11.1,32.41,12.67L32.41,12.67z"/>
	</g>
</g>
<g>
	<g>
		<path class="st0" d="M33.52,34.73c1.61,0,1.61-2.5,0-2.5C31.91,32.23,31.91,34.73,33.52,34.73L33.52,34.73z"/>
	</g>
</g>
<g>
	<g>
		<path class="st0" d="M38.1,15.07c0.02,0.58-0.02,1.15-0.09,1.72c-0.01,0.04-0.07,0.52-0.04,0.29c-0.02,0.12-0.03,0.25-0.05,0.37
			c-0.05,0.38-0.11,0.76-0.15,1.14c-0.14,1.25-0.14,2.53,0.28,3.73c0.21,0.62,0.87,1.09,1.54,0.87c0.61-0.2,1.1-0.88,0.87-1.54
			c-0.1-0.28-0.17-0.57-0.23-0.86c-0.02-0.15-0.03-0.16-0.01-0.04c-0.01-0.06-0.01-0.12-0.02-0.19c-0.01-0.14-0.02-0.29-0.02-0.43
			c-0.01-0.56,0.04-1.12,0.1-1.68c0.01-0.05,0.06-0.46,0.03-0.23c0.02-0.12,0.03-0.25,0.05-0.37c0.05-0.36,0.1-0.72,0.14-1.08
			c0.07-0.57,0.11-1.15,0.09-1.72c-0.02-0.65-0.56-1.28-1.25-1.25C38.69,13.85,38.08,14.37,38.1,15.07L38.1,15.07z"/>
	</g>
</g>
<g>
	<g>
		<path class="st0" d="M38.1,26.37c0,3.16-0.08,6.56,1.12,9.55c1.31,3.27,4.06,5.2,7.45,5.96c1.57,0.35,2.24-2.06,0.66-2.41
			c-2.7-0.61-4.94-2.03-5.87-4.65c-0.95-2.69-0.87-5.64-0.87-8.45C40.6,24.76,38.1,24.76,38.1,26.37L38.1,26.37z"/>
	</g>
</g>
<g>
	<g>
		<path class="st0" d="M61.59,17.69c1.39,0.05,2.78,0.07,4.16,0.16c0.65,0.04,1.31,0.09,1.96,0.18c0.5,0.07,1.16,0.09,1.62,0.32
			c1.24,0.63-0.01,2.79-0.55,3.63c-0.75,1.16-1.39,2.29-1.55,3.68c-0.14,1.17-0.08,2.4-0.67,3.46c-1.04,1.85-3.15,2.01-5.06,2.01
			c-1.61,0-1.61,2.5,0,2.5c2.12,0,4.16-0.24,5.87-1.63c0.78-0.63,1.33-1.48,1.7-2.4c0.48-1.19,0.47-2.4,0.62-3.65
			c0.15-1.23,0.93-2.17,1.55-3.2c0.46-0.75,0.81-1.61,0.97-2.47c0.34-1.87-0.34-3.67-2.22-4.34c-1.26-0.45-2.77-0.49-4.1-0.58
			c-1.43-0.09-2.87-0.12-4.3-0.17C59.98,15.13,59.98,17.63,61.59,17.69L61.59,17.69z"/>
	</g>
</g>
<g>
	<g>
		<path class="st0" d="M41.02,45.66c1.7,2.1,2.45,5.39,1.69,8c-0.25,0.87-0.74,1.55-1.46,1.98c-0.88,0.53-1.98,0.66-3.09,0.64
			c-1.61-0.03-1.61,2.47,0,2.5c3.06,0.05,5.94-1.22,6.91-4.31c1.12-3.54-0.02-7.76-2.29-10.58c-0.42-0.53-1.33-0.44-1.77,0
			C40.5,44.41,40.6,45.13,41.02,45.66L41.02,45.66z"/>
	</g>
</g>
<g>
	<g>
		<path class="st0" d="M50.41,45.8c-2.06,2.54-2.01,6.22-0.61,9.05c0.59,1.2,1.48,2.29,2.66,2.95c1.23,0.68,2.64,0.88,4.03,0.89
			c1.61,0.01,1.61-2.49,0-2.5c-0.29,0-0.59-0.01-0.88-0.03c-0.14-0.01-0.27-0.02-0.41-0.04c0.19,0.03-0.21-0.04-0.25-0.05
			c-0.51-0.11-0.9-0.25-1.17-0.39c-0.1-0.06-0.2-0.11-0.3-0.18c-0.04-0.03-0.35-0.26-0.17-0.11c-0.18-0.15-0.36-0.32-0.52-0.49
			c-0.03-0.03-0.25-0.29-0.12-0.13c-0.08-0.1-0.15-0.21-0.22-0.32c-0.15-0.23-0.29-0.47-0.42-0.72c-0.51-1-0.73-2-0.73-3.1
			c0.01-1.07,0.26-2.29,0.88-3.05c0.43-0.52,0.51-1.26,0-1.77C51.73,45.36,50.83,45.28,50.41,45.8L50.41,45.8z"/>
	</g>
</g>
<g>
	<g>
		<path class="st0" d="M38.99,56.01c-2.58-0.06-5.67-1.02-6.73,2.19c-0.55,1.65-0.35,3.47-0.34,5.18c0.01,1.98-0.23,3.94-0.13,5.92
			c0.11,2.14-0.13,6.19,2.97,5.99c0.74-0.05,1.42-0.37,2.16-0.47c0.96-0.14,2.02,0.04,2.97,0.18c1.97,0.31,3.86,0.55,5.86,0.63
			c4.65,0.17,9.21-0.71,13.84-0.63c1.61,0.03,1.61-2.47,0-2.5c-4.33-0.08-8.6,0.77-12.94,0.66c-2.14-0.06-4.2-0.28-6.32-0.6
			c-0.98-0.15-1.99-0.3-2.99-0.26c-0.66,0.03-1.84,0.09-2.42,0.45c-0.33-0.04-0.4,0.05-0.22,0.27c-0.02-0.07-0.04-0.14-0.05-0.22
			c-0.12-0.3-0.13-0.72-0.16-1.04c-0.07-0.67-0.12-1.34-0.17-2.01c-0.15-2.06,0.1-4.11,0.11-6.17c0-1.16-0.58-4.46,0.59-5.21
			c0.9-0.58,2.98,0.12,3.97,0.14C40.6,58.55,40.6,56.05,38.99,56.01L38.99,56.01z"/>
	</g>
</g>
<g>
	<g>
		<path class="st0" d="M61.12,74.29c1.87-3.59,0.72-7.9,0.72-11.75c0-2,0.78-5.34-1.22-6.67c-1.46-0.97-3.37-0.39-4.92,0
			c-1.56,0.39-0.9,2.8,0.66,2.41c0.65-0.16,2.52-0.8,2.89-0.29c0.19,0.26,0.14,0.82,0.15,1.12c0.02,0.52,0,1.04-0.02,1.56
			c-0.03,0.96-0.08,1.91-0.03,2.86c0.08,1.64,0.26,3.27,0.29,4.92c0.03,1.51,0.03,3.2-0.69,4.58
			C58.21,74.45,60.37,75.72,61.12,74.29L61.12,74.29z"/>
	</g>
</g>
<g>
	<g>
		<path class="st0" d="M41.36,58.14c4.87,0.01,9.71,0.63,14.58,0.64c1.61,0,1.61-2.5,0-2.5c-4.87-0.01-9.71-0.63-14.58-0.64
			C39.75,55.64,39.75,58.14,41.36,58.14L41.36,58.14z"/>
	</g>
</g>
<g>
	<g>
		<path class="st0" d="M56.21,58.78c1.61,0,1.61-2.5,0-2.5C54.6,56.28,54.6,58.78,56.21,58.78L56.21,58.78z"/>
	</g>
</g>
<g>
	<g>
		<path class="st0" d="M26.27,75.68c6.62,1.09,13.16-0.44,19.75-0.93c3.52-0.26,7.01-0.16,10.51,0.28c3.66,0.46,7.24,0.3,10.89-0.13
			c1.58-0.19,1.6-2.69,0-2.5c-3.56,0.42-7.08,0.6-10.65,0.16c-3.43-0.42-6.82-0.57-10.27-0.34c-6.48,0.42-13.06,2.12-19.56,1.05
			C25.36,73.01,24.68,75.42,26.27,75.68L26.27,75.68z"/>
	</g>
</g>
</svg>
