<?xml version="1.0" encoding="utf-8"?>
<!-- Generator: Adobe Illustrator 24.3.0, SVG Export Plug-In . SVG Version: 6.00 Build 0)  -->
<svg version="1.1" id="Layer_1" xmlns="http://www.w3.org/2000/svg" xmlns:xlink="http://www.w3.org/1999/xlink" x="0px" y="0px"
	 viewBox="0 0 64 59" style="enable-background:new 0 0 64 59;" xml:space="preserve">
<style type="text/css">
	.st0{fill:#C3203A;}
</style>
<path class="st0" d="M28.91,28.75c0.66,0.38,1.3,0.68,1.87,1.1c1.67,1.22,2.51,2.93,2.72,4.94c0.4,3.74-0.84,6.8-3.97,8.98
	c-1.62,1.12-3.51,1.49-5.41,1.53c-4.36,0.09-8.72,0.07-13.07,0.1c-0.9,0.01-1.8,0-2.76,0c-0.01-0.25-0.03-0.45-0.03-0.66
	c0-9.87,0-19.74-0.01-29.61c0-0.53,0.13-0.67,0.67-0.67c4.69,0.02,9.37,0,14.06,0.02c1.52,0,3.02,0.18,4.48,0.67
	c3.77,1.27,5.32,4.36,5.14,7.94C32.46,25.67,31.29,27.6,28.91,28.75z M15.41,39.94c2.63,0,5.22,0.14,7.8-0.04
	c2.63-0.18,3.68-1.44,3.87-4.03c0.13-1.75-0.69-3.13-2.26-3.66c-0.61-0.21-1.27-0.35-1.91-0.36c-2.36-0.05-4.72-0.03-7.08-0.04
	c-0.13,0-0.26,0.03-0.41,0.05C15.41,34.56,15.41,37.24,15.41,39.94z M15.4,26.62c0.2,0.01,0.35,0.03,0.5,0.03
	c2.03,0,4.07,0.01,6.1,0c0.5,0,1-0.04,1.48-0.13c1.23-0.24,2.37-0.67,2.76-2.01c0.17-0.58,0.19-1.21,0.16-1.82
	c-0.05-1.29-0.82-2.22-2.08-2.47c-0.95-0.19-1.93-0.32-2.9-0.34c-1.84-0.05-3.68-0.02-5.52-0.01c-0.16,0-0.33,0.03-0.5,0.04
	C15.4,22.15,15.4,24.35,15.4,26.62z"/>
<path class="st0" d="M58,35c-5.51,0-10.82,0-16.12,0c-0.14,2.71,1.47,5.21,4.8,5.46c1.31,0.1,2.59-0.03,3.66-0.88
	c0.45-0.36,0.79-0.88,1.19-1.31c0.12-0.13,0.28-0.3,0.42-0.3c1.86-0.02,3.72-0.01,5.78-0.01c-0.31,0.78-0.5,1.5-0.85,2.12
	c-1.15,1.99-2.77,3.5-4.94,4.29c-3.4,1.23-6.81,1.18-10.13-0.35c-3.06-1.4-4.95-3.75-5.53-7.08c-0.49-2.79-0.45-5.58,0.43-8.31
	c1.22-3.78,4.62-6.46,8.59-6.84c1.86-0.18,3.69-0.11,5.47,0.44c3.95,1.2,6.12,4.02,6.87,7.95C57.91,31.71,57.88,33.32,58,35z
	 M51.83,31.12c0.03-2.74-2.08-4.6-4.8-4.66c-3.32-0.07-4.85,2.32-5.02,4.66C45.29,31.12,48.56,31.12,51.83,31.12z"/>
<path class="st0" d="M40.7,18.8c0-0.99,0-1.97,0-2.99c4.11,0,8.22,0,12.37,0c0,0.99,0,1.96,0,2.99C48.96,18.8,44.87,18.8,40.7,18.8z
	"/>
</svg>
