<?xml version="1.0" encoding="utf-8"?>
<!-- Generator: Adobe Illustrator 24.3.0, SVG Export Plug-In . SVG Version: 6.00 Build 0)  -->
<svg version="1.1" id="Layer_1" xmlns="http://www.w3.org/2000/svg" xmlns:xlink="http://www.w3.org/1999/xlink" x="0px" y="0px"
	 viewBox="0 0 93.36 81.42" style="enable-background:new 0 0 93.36 81.42;" xml:space="preserve">
<style type="text/css">
	.st0{fill:#FFFFFF;}
</style>
<g>
	<g>
		<path class="st0" d="M44.77,9.38c0,20.53,0,41.05,0,61.58c0,1.21,1.88,1.21,1.88,0c0-20.53,0-41.05,0-61.58
			C46.65,8.18,44.77,8.17,44.77,9.38L44.77,9.38z"/>
	</g>
</g>
<g>
	<g>
		<path class="st0" d="M29.19,57.63c11.27-0.01,22.54-0.73,33.79,0c-0.22-0.53-0.44-1.07-0.66-1.6
			c-5.59,7.06-14.68,10.21-20.28,17.27c0.49,0.06,0.98,0.13,1.47,0.19c-4.69-6.35-6.89-14.34-12.91-19.72
			c-0.9-0.8-2.23,0.52-1.33,1.33c5.89,5.25,8.03,13.13,12.62,19.34c0.32,0.43,1.06,0.71,1.47,0.19
			c5.59-7.06,14.68-10.21,20.28-17.27c0.51-0.64,0.2-1.55-0.66-1.6c-11.26-0.73-22.53-0.01-33.79,0
			C27.98,55.76,27.98,57.64,29.19,57.63L29.19,57.63z"/>
	</g>
</g>
</svg>
