<?xml version="1.0" encoding="utf-8"?>
<!-- Generator: Adobe Illustrator 24.3.0, SVG Export Plug-In . SVG Version: 6.00 Build 0)  -->
<svg version="1.1" id="Layer_1" xmlns="http://www.w3.org/2000/svg" xmlns:xlink="http://www.w3.org/1999/xlink" x="0px" y="0px"
	 viewBox="0 0 64 59" style="enable-background:new 0 0 64 59;" xml:space="preserve">
<style type="text/css">
	.st0{fill:#C3203A;}
</style>
<path class="st0" d="M34.02,51.89c-10.3,1.01-22.9-8.36-22.95-22.67C11.04,16.54,21.38,6.2,34.05,6.21c12.66,0,23,10.35,22.95,23.04
	C56.94,43.51,44.38,52.91,34.02,51.89z M42.23,46.51c-1.28-4.56-2.56-9.12-3.87-13.78c-6.8,2.25-12.01,6.16-16.3,11.4
	C26.56,48.58,36.24,49.82,42.23,46.51z M14.94,28.35c-0.74,3.76,1.45,10.22,4.46,13.18c4.66-5.58,10.33-9.76,17.35-12.15
	c-0.69-1.45-1.32-2.8-1.98-4.19C28.28,27.34,21.71,28.32,14.94,28.35z M33.15,21.82c-2.31-3.56-4.5-6.94-6.74-10.38
	c-5.82,2.78-9.46,7.07-11.14,13.25C21.37,24.56,27.18,23.75,33.15,21.82z M49.23,17.33c-3.69,2.32-7.21,4.54-10.82,6.81
	c0.59,1.28,1.29,2.79,1.86,4.04c4.45,0,8.66,0,12.98,0C53.14,24.16,51.67,20.45,49.23,17.33z M46.71,14.63
	c-5.19-4.12-10.53-5.43-16.57-4.36c2.21,3.48,4.35,6.84,6.68,10.51C40.07,18.76,43.27,16.77,46.71,14.63z M53.07,32.3
	c-3.85-0.82-7.49-1.01-11.1-0.38c1.21,4.27,2.39,8.42,3.59,12.68C49.62,41.5,52.11,37.49,53.07,32.3z"/>
</svg>
