<?xml version="1.0" encoding="utf-8"?>
<!-- Generator: Adobe Illustrator 24.3.0, SVG Export Plug-In . SVG Version: 6.00 Build 0)  -->
<svg version="1.1" id="Layer_1" xmlns="http://www.w3.org/2000/svg" xmlns:xlink="http://www.w3.org/1999/xlink" x="0px" y="0px"
	 viewBox="0 0 93.36 81.42" style="enable-background:new 0 0 93.36 81.42;" xml:space="preserve">
<style type="text/css">
	.st0{fill:#231F20;}
</style>
<g>
	<g>
		<path class="st0" d="M17.53,32.67c3.97-2.93,8.57-4.88,13.09-6.77c2.16-0.9,4.31-1.81,6.43-2.81c2.51-1.18,5.19-1.98,7.64-3.28
			c2.38-1.26,4.46-3.08,7.09-3.87c2.21-0.66,3.74,0.61,5.39,1.88c3.83,2.93,8.72,4.21,13.13,6.01c2.64,1.07,5.27,2.18,7.77,3.55
			c2.5,1.38,4.74,3.14,7.1,4.75c0-0.34,0-0.67,0-1.01c-2.1,0.99-4.45,1.19-6.59,2.04c-2.2,0.87-3.93,2.6-5.59,4.23
			c-3.59,3.51-7.89,7.07-12.65,8.85c-1.11,0.41-2.25,0.65-3.39,0.97c-1.39,0.39-2.74,0.91-4.13,1.3c-2.64,0.73-4.9,0.3-7.38-0.77
			c-2.13-0.93-4.14-2.13-6.28-3.04c-2.3-0.99-4.45-2.09-6.53-3.51c-2.27-1.55-4.39-3.34-6.74-4.74c-2.82-1.68-5.82-3.06-8.72-4.59
			c-0.66-0.35-1.26,0.66-0.59,1.01c2.62,1.38,5.3,2.67,7.89,4.12c2.33,1.3,4.42,2.99,6.59,4.53c2.14,1.52,4.36,2.89,6.78,3.9
			c2.27,0.95,4.4,2.16,6.64,3.18c1.94,0.88,4.09,1.71,6.26,1.53c2.58-0.22,5.01-1.42,7.51-2.02c4.84-1.17,8.96-4.16,12.77-7.27
			c2.38-1.94,4.3-4.63,7.02-6.12c2.39-1.31,5.26-1.39,7.73-2.56c0.43-0.2,0.33-0.78,0-1.01c-2.12-1.44-4.14-3.05-6.37-4.34
			c-2.21-1.28-4.55-2.32-6.9-3.31c-2.39-1-4.8-1.95-7.23-2.87c-2.41-0.92-4.86-1.84-6.95-3.38c-1.46-1.07-2.86-2.45-4.74-2.65
			c-2.27-0.24-4.62,1.23-6.47,2.36c-1.13,0.7-2.21,1.48-3.41,2.07c-1.48,0.72-3.01,1.3-4.54,1.92c-2.42,0.98-4.75,2.14-7.16,3.14
			c-5.17,2.15-10.51,4.24-15.05,7.59C16.34,32.1,16.93,33.11,17.53,32.67L17.53,32.67z"/>
	</g>
</g>
<g>
	<g>
		<path class="st0" d="M20.26,34.58c0.02,6.47,0.87,12.89,1.25,19.34c0.17,2.87,0.19,6.15-0.82,8.88c-0.94,2.56-2.8,4.65-3.94,7.12
			c-0.17,0.37-0.03,0.71,0.35,0.86c2.7,1.04,5.93,0.77,8.75,0.56c0.2-0.01,0.41-0.1,0.5-0.29c0.28-0.58,0.2-0.75,0.06-1.35
			c-0.17-0.73-1.3-0.42-1.13,0.31c0.04,0.17,0.13,0.3,0.06,0.45c0.17-0.1,0.34-0.19,0.5-0.29c-2.73,0.2-5.84,0.48-8.44-0.52
			c0.12,0.29,0.23,0.57,0.35,0.86c1.1-2.39,2.83-4.44,3.85-6.88c1.12-2.68,1.23-5.97,1.12-8.84c-0.26-6.76-1.28-13.45-1.3-20.22
			C21.42,33.83,20.26,33.83,20.26,34.58L20.26,34.58z"/>
	</g>
</g>
<g>
	<g>
		<path class="st0" d="M25.88,70.85c-0.03-3.24-2.07-5.87-3.24-8.75c-0.12-0.29-0.39-0.5-0.72-0.41c-0.28,0.07-0.53,0.43-0.41,0.72
			c1.11,2.75,3.17,5.37,3.2,8.44C24.72,71.6,25.89,71.6,25.88,70.85L25.88,70.85z"/>
	</g>
</g>
<g>
	<g>
		<path class="st0" d="M28.91,40.17c1.11,2.41,0.69,5.62,0.63,8.19c-0.05,2.34-0.13,4.82,0.67,7.06c1.64,4.63,6.88,6.1,11.1,7.47
			c5.81,1.88,12.14,3.08,18.21,1.83c5.41-1.12,10.69-4.4,13.01-9.56c2.51-5.57,2.08-11.97,2.07-17.92c0-0.75-1.17-0.75-1.17,0
			c0.01,5.09,0.32,10.38-1.17,15.32C70.58,58.1,66,61.81,60.49,63.3c-5.72,1.55-11.81,0.6-17.39-1.06c-2.58-0.77-5.28-1.6-7.68-2.84
			c-1.93-1-3.5-2.42-4.18-4.54c-0.78-2.46-0.56-5.16-0.51-7.7c0.05-2.47,0.24-5.28-0.82-7.58C29.6,38.9,28.6,39.49,28.91,40.17
			L28.91,40.17z"/>
	</g>
</g>
</svg>
