<?xml version="1.0" encoding="utf-8"?>
<!-- Generator: Adobe Illustrator 24.3.0, SVG Export Plug-In . SVG Version: 6.00 Build 0)  -->
<svg version="1.1" id="Layer_1" xmlns="http://www.w3.org/2000/svg" xmlns:xlink="http://www.w3.org/1999/xlink" x="0px" y="0px"
	 viewBox="0 0 93.36 81.42" style="enable-background:new 0 0 93.36 81.42;" xml:space="preserve">
<style type="text/css">
	.st0{fill:#211B1F;stroke:#000000;stroke-width:0.5;stroke-miterlimit:10;}
</style>
<g>
	<g>
		<path class="st0" d="M16.96,17.8c-0.13,4.66-0.68,10.92,3.29,14.27c1.06,0.9,2.28,1.41,3.65,1.61c0.68,0.1,1.35,0.12,2.03,0.15
			c0.5,0.02,1.5-0.15,1.96,0.11c0.54,0.31,0.65,1.87,0.86,2.43c0.52,1.34,1.67,2.24,2.29,3.52c0.24,0.5,1.03,0.71,1.48,0.39
			c1.51-1.07,1.83-2.67,2.61-4.24c0.74-1.48,1.46-1.94,3.07-1.97c1-0.02,2-0.05,3-0.08c0.74-0.02,2.11-0.21,2.74,0.28
			c0.42,0.33,0.66,1.2,0.93,1.65c0.52,0.9,1.14,1.74,1.82,2.54c0.31,0.37,0.92,0.39,1.31,0.17c1.51-0.84,1.84-2.45,2.58-3.88
			c0.95-1.84,2.91-1.56,4.7-1.46c0.82,0.05,1.61,0.01,2.43-0.03c1.18-0.05,0.99,0.84,1.28,1.78c0.63,2.02,1.74,3.84,3.08,5.46
			c0.45,0.55,1.38,0.34,1.7-0.22c0.8-1.36,1.44-2.82,2.32-4.14c0.45-0.66,0.83-1.12,1.64-1.27c0.77-0.15,1.59-0.13,2.37-0.17
			c2.37-0.14,4.73-0.54,5.98-2.81c1.6-2.9,1.77-6.67,1.89-9.9c0.1-2.65,0.77-5.37-1.59-7.22c-2.28-1.78-5.29-2.77-8.15-2.96
			c-3.63-0.24-7.32-0.06-10.95-0.11c-3.9-0.05-7.79-0.1-11.69-0.21c-3.69-0.1-7.4-0.14-11.07,0.3c-4.18,0.51-8.31,1.62-12.44,2.42
			c-2.6,0.5-5.8,1.96-6.76,4.61c-0.47,1.32,1.62,1.88,2.09,0.58c0.78-2.18,4.21-2.92,6.18-3.25c3.39-0.56,6.7-1.55,10.1-2.08
			c6.8-1.05,13.83-0.27,20.67-0.23c3.48,0.02,6.95,0.12,10.43,0.1c3.06-0.02,5.76,0.13,8.54,1.51c0.91,0.45,2.16,1.02,2.53,2.03
			c0.41,1.14,0,2.74-0.06,3.92c-0.15,3.06-0.1,6.62-1.61,9.39c-1.25,2.29-4.58,1.61-6.74,1.94c-3.11,0.47-4.18,4.08-5.57,6.46
			c0.57-0.07,1.14-0.15,1.7-0.22c-0.81-0.98-1.5-2.06-2.02-3.22c-0.48-1.07-0.57-2.31-1.1-3.34c-0.96-1.87-3.16-1.18-4.86-1.27
			c-1.88-0.1-4.02-0.34-5.61,0.89c-0.79,0.6-1.24,1.46-1.63,2.35c-0.36,0.83-0.63,1.91-1.47,2.37c0.44,0.06,0.88,0.11,1.31,0.17
			c-0.79-0.93-1.41-1.95-1.98-3.03c-0.3-0.58-0.63-1.15-1.21-1.5c-1.83-1.1-4.51-0.52-6.51-0.5c-1.58,0.01-3.09,0.17-4.19,1.41
			c-0.6,0.68-1.03,1.5-1.39,2.33c-0.39,0.92-0.67,2.16-1.52,2.76c0.49,0.13,0.99,0.26,1.48,0.39c-0.59-1.21-1.74-2.08-2.19-3.35
			c-0.33-0.93-0.39-2.03-1.04-2.81c-1.43-1.74-4.59-0.67-6.52-1.31c-5.04-1.69-4.16-9.41-4.05-13.51C19.17,16.4,17,16.4,16.96,17.8
			L16.96,17.8z"/>
	</g>
</g>
<g>
	<g>
		<path class="st0" d="M26.68,22.53c0.61,0.18,1.2,0.49,1.7,0.89c0.2,0.16,0.4,0.35,0.55,0.57c0.11,0.18,0.09,0.14,0.07,0.31
			c-0.17,1.18-1.06,2.17-1.23,3.35c-0.12,0.86,0.46,1.47,1.33,1.33c0.78-0.12,1.46-0.52,2.08-0.99c0.56-0.42,1.11-0.97,1.78-1.21
			c0.5-0.17,0.6-0.06,0.92,0.35c0.45,0.57,0.79,1.19,1.34,1.67c0.76,0.66,1.74,0.17,1.85-0.77c-0.02,0.17,0.04-0.2,0.05-0.24
			c0.03-0.16,0.07-0.31,0.11-0.47c0.08-0.3,0.17-0.6,0.27-0.89c0.25-0.75,0.54-1.49,0.83-2.23c0.51-1.28,1.09-2.55,1.47-3.88
			c0.17-0.6-0.21-1.14-0.76-1.33c-0.71-0.26-1.47,0.23-2.03,0.62c-0.63,0.45-1.23,0.95-1.89,1.35C35,21.03,35.05,21.01,35.05,21
			c0.07-0.03,0.07-0.03,0.02-0.02c-0.1,0.02-0.04,0.03,0.17,0.01c0.43-0.02,0.1,0-0.03-0.08c-0.08-0.05-0.18-0.09-0.26-0.15
			c-0.3-0.24-0.49-0.65-0.7-0.96c-0.64-0.96-0.29-2.25-0.61-3.33c-0.28-0.95-1.91-1.11-2.09,0c-0.1,0.63-0.17,1.27-0.34,1.89
			c-0.1,0.38-0.21,0.64-0.55,0.8c-0.65,0.32-1.48,0.2-2.16,0.09c-0.92-0.14-1.83-0.33-2.76-0.29c-0.65,0.03-1.3,0.68-1.05,1.37
			c0.31,0.84,0.8,1.57,1.43,2.2c0.39,0.4,0.86,0.89,1.45,0.92c0.88,0.04,1.51-1.26,0.77-1.85c-0.1-0.08-0.21-0.16-0.31-0.24
			c-0.47-0.34-1.21-0.08-1.48,0.39c-0.32,0.55-0.09,1.14,0.39,1.48c0.11,0.08,0.07,0.05-0.13-0.1c0.26-0.62,0.51-1.23,0.77-1.85l0,0
			c0.18,0.05,0.36,0.1,0.55,0.15c-0.08-0.06,0.02-0.01,0.02,0.01c0,0.07,0.03,0.03-0.07-0.06c-0.15-0.14-0.31-0.28-0.46-0.43
			c-0.34-0.35-0.66-0.74-0.82-1.2c-0.35,0.46-0.7,0.92-1.05,1.37c2.02-0.09,4.18,0.98,6.08-0.14c1.43-0.85,1.59-2.45,1.83-3.93
			c-0.7,0-1.39,0-2.09,0c0.18,0.62,0.13,1.24,0.18,1.87c0.06,0.73,0.24,1.36,0.64,1.98c0.65,0.98,1.3,1.91,2.52,2.19
			c0.86,0.2,1.63-0.42,2.27-0.9c0.36-0.27,0.72-0.56,1.1-0.81c0.14-0.1,0.29-0.19,0.44-0.27c0.22-0.12,0.03-0.01,0.03-0.02
			c0.02-0.01,0.05-0.01,0.07-0.02c-0.4-0.05-0.52-0.04-0.34,0.01c-0.25-0.44-0.5-0.89-0.76-1.33c-0.8,2.79-2.46,5.37-2.81,8.29
			c0.62-0.26,1.23-0.51,1.85-0.77c-1.21-1.04-1.66-2.86-3.6-2.72c-0.96,0.07-1.77,0.55-2.51,1.12c-0.66,0.51-1.27,1.08-2.12,1.22
			c0.44,0.44,0.89,0.89,1.33,1.33c0.21-1.49,1.44-2.71,1.3-4.28c-0.16-1.82-2.34-3.05-3.9-3.51C25.92,20.05,25.34,22.14,26.68,22.53
			L26.68,22.53z"/>
	</g>
</g>
<g>
	<g>
		<path class="st0" d="M56.12,23.36c0.17,0.05-0.02-0.13,0.04-0.01c0.08,0.17,0.08,0.39,0.14,0.57c0.14,0.43,0.49,0.78,0.58,1.21
			c0.19,0.89-0.12,1.94-0.22,2.83c-0.08,0.77,0.76,1.15,1.37,1.05c0.87-0.15,1.5-0.74,1.99-1.44c0.33-0.48,0.63-1.25,1.07-1.4
			c0.18-0.06,0.34-0.03,0.54,0.08c0.33,0.17,0.59,0.46,0.83,0.72c0.57,0.61,1.05,1.32,1.7,1.87c0.76,0.65,1.74,0.18,1.85-0.77
			c-0.03,0.21,0.04-0.23,0.05-0.27c0.03-0.13,0.06-0.25,0.09-0.38c0.08-0.34,0.18-0.67,0.29-1c0.25-0.79,0.54-1.57,0.83-2.34
			c0.5-1.33,1.08-2.66,1.47-4.03c0.17-0.6-0.21-1.13-0.76-1.33c-0.76-0.28-1.61,0.25-2.23,0.63c-0.34,0.21-0.66,0.43-1.01,0.62
			c-0.07,0.04-0.14,0.08-0.22,0.12c-0.14,0.07-0.05,0.05-0.08,0.03c-0.05-0.04,0.09,0.04,0.17,0.01c0.11,0.02,0.11,0.02-0.01-0.01
			c-0.09-0.03-0.18-0.05-0.27-0.06c-0.3-0.06-0.97-0.04-1.1-0.14c-0.19-0.16-0.32-0.59-0.36-0.87c-0.17-1.05,0.02-2.12-0.29-3.16
			c-0.28-0.95-1.9-1.11-2.09,0c-0.15,0.92-0.24,2.36-1.12,2.92c-0.58,0.37-1.39,0.32-2.05,0.29c-0.89-0.04-1.77-0.15-2.66-0.1
			c-0.65,0.03-1.3,0.67-1.05,1.37c0.31,0.84,0.8,1.57,1.43,2.2c0.39,0.4,0.86,0.89,1.45,0.92c0.88,0.04,1.51-1.26,0.77-1.85
			c-0.1-0.08-0.21-0.16-0.31-0.24c-0.47-0.34-1.21-0.08-1.48,0.39c-0.32,0.55-0.09,1.14,0.39,1.48c0.11,0.08,0.07,0.05-0.13-0.1
			c0.26-0.62,0.51-1.23,0.77-1.85l0,0c0.18,0.05,0.36,0.1,0.55,0.15c-0.08-0.06,0.02-0.01,0.02,0.01c0,0.07,0.03,0.03-0.07-0.06
			c-0.15-0.14-0.31-0.28-0.46-0.43c-0.34-0.35-0.66-0.74-0.82-1.2c-0.35,0.46-0.7,0.92-1.05,1.37c1.94-0.1,4.19,0.61,5.93-0.56
			c1.39-0.93,1.73-2.59,1.99-4.13c-0.7,0-1.39,0-2.09,0c0.33,1.1,0.06,2.29,0.35,3.41c0.32,1.22,1.2,2.11,2.47,2.24
			c0.42,0.04,0.85,0.18,1.27,0.17c0.45-0.01,0.87-0.23,1.26-0.44c0.41-0.23,0.79-0.49,1.19-0.73c0.17-0.1,0.34-0.18,0.51-0.28
			c0.02-0.01,0.02-0.06,0.09-0.03c-0.01-0.01-0.41-0.07-0.21,0c-0.25-0.44-0.5-0.89-0.76-1.33c-0.82,2.88-2.45,5.59-2.81,8.6
			c0.62-0.26,1.23-0.51,1.85-0.77c-1.4-1.19-2.4-3.47-4.56-3.33c-1.05,0.07-1.81,0.69-2.38,1.54c-0.42,0.62-0.64,1.3-1.3,1.41
			c0.46,0.35,0.92,0.7,1.37,1.05c0.14-1.3,0.52-2.71-0.05-3.95c-0.11-0.23-0.29-0.42-0.39-0.66c-0.09-0.2-0.09-0.43-0.16-0.63
			c-0.24-0.77-0.78-1.2-1.53-1.44C55.36,20.83,54.79,22.93,56.12,23.36L56.12,23.36z"/>
	</g>
</g>
<g>
	<g>
		<path class="st0" d="M46.33,26.19c-0.09-0.02-0.17-0.04-0.26-0.07c-0.28-0.08,0.06,0.06-0.1-0.04c-0.21-0.12-0.43-0.23-0.64-0.37
			c-0.38-0.25-0.7-0.52-1.12-0.94c-0.46-0.46-0.71-0.76-1.02-1.28c-0.07-0.12-0.14-0.25-0.2-0.37c-0.03-0.06-0.06-0.12-0.09-0.19
			c0.04,0.1,0.04,0.1,0-0.02s-0.07-0.24-0.1-0.37c-0.05-0.21-0.02,0.16-0.02-0.11c0-0.1,0-0.2,0.01-0.3
			c-0.03,0.29,0.03-0.06,0.06-0.12c-0.12,0.33,0.18-0.22-0.02,0.03c0.08-0.1,0.18-0.2,0.28-0.28c0.26-0.2,0.83-0.36,1.26-0.37
			c0.54-0.01,1.14,0.1,1.59,0.3c0.56,0.25,0.96,0.56,1.2,0.95c0.45,0.73,1.4,0.66,1.87,0c0.07-0.1,0.07-0.1,0,0
			c0.04-0.05,0.08-0.09,0.12-0.14c0.09-0.09,0.18-0.18,0.27-0.26c0.1-0.08,0.1-0.08,0,0c0.05-0.04,0.1-0.07,0.16-0.1
			c0.11-0.06,0.21-0.12,0.32-0.18c0.06-0.03,0.11-0.05,0.17-0.08c-0.12,0.05-0.12,0.05,0,0.01c0.11-0.04,0.23-0.07,0.35-0.1
			c0.07-0.02,0.43-0.05,0.14-0.03c0.08,0,0.17-0.01,0.25-0.01s0.4,0.07,0.11-0.01c0.1,0.02,0.2,0.05,0.3,0.08
			c-0.27-0.07,0,0.02,0.08,0.05c0.1,0.07,0.08,0.06-0.04-0.03c0.04,0.03,0.07,0.07,0.1,0.11c-0.09-0.12-0.1-0.14-0.03-0.04
			c0.03,0.04,0.05,0.09,0.08,0.14c-0.13-0.25,0.01,0.07,0.02,0.15c-0.06-0.25,0.01,0.14,0,0.2c0,0.07,0,0.15-0.01,0.22
			c0.01-0.07,0.01-0.07,0,0.01c-0.02,0.14-0.06,0.27-0.09,0.41c-0.02,0.06-0.03,0.12-0.06,0.18c0.05-0.11,0.05-0.11-0.01,0.01
			c-0.06,0.13-0.13,0.25-0.21,0.37c-0.02,0.04-0.23,0.33-0.16,0.25c-0.41,0.53-0.91,0.99-1.43,1.41c-0.49,0.4-1.03,0.77-1.59,1.1
			s-0.92,0.51-1.41,0.66c-1.33,0.41-0.76,2.5,0.58,2.09c1.18-0.36,2.27-1.03,3.25-1.77c1.07-0.8,2.2-1.75,2.82-2.97
			c0.54-1.06,0.73-2.54,0.05-3.58c-0.65-1.02-1.85-1.32-2.99-1.14c-1.24,0.19-2.31,0.91-3.03,1.92c0.62,0,1.25,0,1.87,0
			c-1.45-2.34-5.26-3.17-7.42-1.36c-2.15,1.8-0.41,4.68,1.15,6.19c0.8,0.79,1.86,1.66,3,1.88c0.57,0.11,1.17-0.16,1.33-0.76
			C47.24,26.99,46.91,26.3,46.33,26.19L46.33,26.19z"/>
	</g>
</g>
<g>
	<g>
		<path class="st0" d="M31.05,58.9c-0.21-0.08-0.74-0.4-0.94-0.58c-0.41-0.37-0.58-0.59-0.85-1.02c-0.52-0.84-0.82-1.75-0.97-2.81
			c-0.12-0.84-0.08-1.96,0.15-2.83c0.24-0.91,0.59-1.62,1.3-2.23c0.14-0.12-0.04,0.02,0.12-0.09c0.09-0.06,0.18-0.12,0.27-0.17
			c0.28-0.16,0.24-0.14,0.55-0.24c0.54-0.16,1.11-0.21,1.66-0.25c1.2-0.09,2.78-0.13,3.78,0.67c0.45,0.36,0.63,0.95,0.79,1.48
			c0.22,0.73,0.37,1.49,0.47,2.25c0.1,0.77,0.16,1.54,0.18,2.31c0.01,0.3,0.03,0.62,0,0.92c0,0.03-0.11,0.44-0.12,0.46
			c-0.44,0.99-1.65,1.5-2.77,1.81c-1.26,0.35-2.5,0.48-3.81,0.49c-1.4,0.01-1.4,2.17,0,2.17c2.68-0.01,6.25-0.44,8.02-2.71
			c1.04-1.33,0.9-2.96,0.76-4.55c-0.16-1.76-0.38-3.78-1.32-5.33c-0.95-1.58-2.88-2.07-4.61-2.15c-1.47-0.07-3.17,0.03-4.5,0.71
			c-2.38,1.2-3.26,4.11-3.15,6.61c0.12,2.94,1.48,6.11,4.4,7.19c0.55,0.2,1.19-0.23,1.33-0.76C31.98,59.63,31.6,59.11,31.05,58.9
			L31.05,58.9z"/>
	</g>
</g>
<g>
	<g>
		<path class="st0" d="M29.69,59.29c-1.44,1.84-3.82,2.54-5.41,4.24c-0.98,1.04-1.5,2.38-1.98,3.71c-0.52,1.43-0.88,2.92-1.1,4.43
			c-0.08,0.58,0.14,1.16,0.76,1.33c0.51,0.14,1.25-0.17,1.33-0.76c0.2-1.4,0.53-2.78,0.99-4.12c0.41-1.18,0.84-2.41,1.76-3.29
			c1.58-1.53,3.79-2.24,5.18-4c0.36-0.46,0.45-1.08,0-1.53C30.85,58.91,30.05,58.82,29.69,59.29L29.69,59.29z"/>
	</g>
</g>
<g>
	<g>
		<path class="st0" d="M35.05,60.79c0.01,0,0.02,0,0.03,0c-0.1,0.01-0.19,0.03-0.29,0.04c0.12-0.02,0.25-0.02,0.37,0
			c-0.1-0.01-0.19-0.03-0.29-0.04c0.13,0.02,0.26,0.06,0.38,0.11c-0.09-0.04-0.17-0.07-0.26-0.11c0.15,0.07,0.29,0.15,0.43,0.26
			c-0.07-0.06-0.15-0.11-0.22-0.17c0.21,0.17,0.39,0.36,0.56,0.57c-0.06-0.07-0.11-0.15-0.17-0.22c0.31,0.4,0.56,0.85,0.76,1.32
			c-0.04-0.09-0.07-0.17-0.11-0.26c0.01,0.04,0.03,0.07,0.04,0.11c0.11,0.27,0.24,0.49,0.5,0.65c0.23,0.14,0.57,0.19,0.84,0.11
			c0.26-0.08,0.52-0.25,0.65-0.5c0.13-0.24,0.22-0.57,0.11-0.84c-0.31-0.78-0.7-1.52-1.28-2.14c-0.27-0.29-0.59-0.57-0.95-0.74
			c-0.21-0.1-0.43-0.2-0.66-0.24c-0.37-0.06-0.64-0.06-1.01,0c-0.25,0.04-0.53,0.29-0.65,0.5c-0.14,0.23-0.19,0.57-0.11,0.84
			c0.08,0.26,0.25,0.52,0.5,0.65c0.09,0.04,0.17,0.07,0.26,0.11C34.67,60.84,34.86,60.84,35.05,60.79L35.05,60.79z"/>
	</g>
</g>
<g>
	<g>
		<path class="st0" d="M36.29,61.76c-1.96,2.93-2.45,6.41-3.08,9.8c-0.11,0.58,0.16,1.17,0.76,1.33c0.53,0.15,1.23-0.18,1.33-0.76
			c0.6-3.2,1.02-6.51,2.87-9.28c0.33-0.49,0.09-1.2-0.39-1.48C37.24,61.06,36.61,61.27,36.29,61.76L36.29,61.76z"/>
	</g>
</g>
<g>
	<g>
		<path class="st0" d="M38.26,62.65c0.94-1.23,2.02-2.15,3.37-2.87c0.72-0.39,1.19-0.58,1.94-0.84c0.81-0.28,1.63-0.51,2.46-0.72
			c1.35-0.35,0.78-2.44-0.58-2.09c-1.72,0.44-3.45,0.97-5.01,1.83c-1.62,0.89-2.93,2.14-4.05,3.59c-0.36,0.47-0.07,1.21,0.39,1.48
			C37.34,63.37,37.91,63.12,38.26,62.65L38.26,62.65z"/>
	</g>
</g>
<g>
	<g>
		<path class="st0" d="M43.65,42.09c-2.7,1.31-3.46,5.09-3.19,7.81c0.16,1.59,0.61,3.15,1.56,4.46c0.97,1.32,2.25,2.32,3.58,3.25
			c1.15,0.8,2.23-1.08,1.09-1.87c-2.11-1.47-3.79-3.16-4.07-5.83c-0.21-1.97,0.11-4.96,2.12-5.94C46,43.35,44.9,41.48,43.65,42.09
			L43.65,42.09z"/>
	</g>
</g>
<g>
	<g>
		<path class="st0" d="M44.8,44.07c1.5-0.24,3.09-0.37,4.6-0.18c1.43,0.17,2.35,0.78,2.74,2.2c0.39,1.45,0.39,3.02,0.52,4.51
			c0.14,1.58,0.14,3.01-1.22,4.07c-1.43,1.11-3.53,1.31-5.28,1.32c-1.39,0.01-1.4,2.18,0,2.17c2.04-0.01,4.33-0.3,6.08-1.41
			c1.83-1.15,2.72-2.96,2.66-5.09c-0.03-0.97-0.16-1.93-0.24-2.9s-0.14-1.94-0.35-2.89c-0.41-1.89-1.55-3.38-3.46-3.9
			c-2.12-0.58-4.49-0.34-6.63,0.01c-0.58,0.09-0.9,0.81-0.76,1.33C43.63,43.93,44.21,44.17,44.8,44.07L44.8,44.07z"/>
	</g>
</g>
<g>
	<g>
		<path class="st0" d="M49.14,58.02c2.6,0.85,5.41,2.24,7.16,4.41c0.94,1.18,1.33,2.75,1.71,4.18c0.44,1.67,0.8,3.37,1.35,5.01
			c0.45,1.31,2.54,0.75,2.09-0.58c-1.13-3.33-1.31-7.34-3.62-10.15c-2-2.44-5.17-4-8.11-4.97C48.39,55.49,47.82,57.59,49.14,58.02
			L49.14,58.02z"/>
	</g>
</g>
<g>
	<g>
		<path class="st0" d="M58.23,62.94c1.58-0.23,3.14-0.61,4.73-0.79c1.43-0.16,3.25-0.33,4.54,0.47c1.17,0.73,1.55,2.22,1.9,3.46
			c0.46,1.63,1.36,3.24,1.5,4.94c0.12,1.38,2.29,1.39,2.17,0c-0.17-1.99-1.08-3.81-1.63-5.71c-0.49-1.7-1.14-3.43-2.67-4.46
			c-1.56-1.05-3.66-1.09-5.47-0.91c-1.9,0.18-3.76,0.63-5.65,0.91c-0.58,0.09-0.9,0.82-0.76,1.33
			C57.07,62.81,57.65,63.03,58.23,62.94L58.23,62.94z"/>
	</g>
</g>
<g>
	<g>
		<path class="st0" d="M57.28,49.75c-2.38,1.98-1.88,5.29-0.23,7.56c1.63,2.24,4.38,4.22,7.29,3.75c2.88-0.47,4.47-3.53,4.84-6.16
			c0.39-2.72-0.17-6.04-2.66-7.64c-1.85-1.19-4.51-1.51-6.53-0.63c-1.96,0.86-2.41,2.84-3.3,4.57c-0.64,1.24,1.23,2.34,1.87,1.09
			c0.55-1.07,0.85-2.62,1.83-3.41c1.22-0.99,3.19-0.61,4.5-0.04c0.87,0.38,1.39,1.01,1.76,1.86c0.4,0.94,0.52,1.97,0.47,3.04
			c-0.04,1.02-0.3,2.16-0.76,3.05c-0.45,0.89-1.05,1.61-1.86,1.97c-0.4,0.18-0.74,0.21-1.19,0.2c-0.3-0.01-0.27-0.01-0.58-0.08
			c-0.28-0.06-0.55-0.15-0.81-0.25c-0.89-0.36-1.83-1.08-2.54-1.86c-0.79-0.86-1.38-1.87-1.58-3.01c-0.03-0.16-0.01-0.02-0.02-0.23
			c-0.01-0.15-0.01-0.3,0-0.45c0.01-0.16,0.03-0.3,0.12-0.59c0.04-0.15,0.15-0.37,0.31-0.61c0.11-0.16,0.36-0.41,0.6-0.6
			c0.45-0.37,0.39-1.15,0-1.53C58.37,49.3,57.73,49.37,57.28,49.75L57.28,49.75z"/>
	</g>
</g>
<g>
	<g>
		<path class="st0" d="M26.85,66.94c-0.43,1.74-0.74,3.52-0.86,5.31c-0.04,0.57,0.52,1.11,1.08,1.08c0.62-0.03,1.04-0.48,1.08-1.08
			c0.03-0.4,0.06-0.8,0.11-1.2c0.01-0.12,0.03-0.25,0.05-0.37c-0.03,0.2,0,0,0.01-0.09c0.03-0.2,0.06-0.41,0.1-0.61
			c0.14-0.83,0.32-1.65,0.52-2.47c0.14-0.55-0.18-1.2-0.76-1.33C27.62,66.06,26.99,66.35,26.85,66.94L26.85,66.94z"/>
	</g>
</g>
<g>
	<g>
		<path class="st0" d="M26.97,73.75c1.4,0,1.4-2.17,0-2.17S25.57,73.75,26.97,73.75L26.97,73.75z"/>
	</g>
</g>
<g>
	<g>
		<path class="st0" d="M40.04,66c-0.01,0.07-0.02,0.14-0.03,0.21C40,66.33,39.99,66.36,40,66.28c0.01-0.1-0.03,0.19-0.03,0.23
			c-0.04,0.23-0.07,0.46-0.12,0.69c-0.08,0.45-0.17,0.89-0.26,1.33c-0.19,0.9-0.39,1.81-0.54,2.72c-0.09,0.56,0.15,1.19,0.76,1.33
			c0.52,0.12,1.23-0.16,1.33-0.76c0.33-1.95,0.84-3.86,1.06-5.83c0.06-0.57-0.54-1.11-1.08-1.08C40.48,64.94,40.11,65.39,40.04,66
			L40.04,66z"/>
	</g>
</g>
<g>
	<g>
		<path class="st0" d="M52.47,67.04c0.1,0.05,0.18,0.11,0.27,0.16c0.17,0.1-0.19-0.17-0.04-0.04c0.04,0.04,0.09,0.07,0.13,0.11
			c0.09,0.08,0.17,0.17,0.24,0.26c0.08,0.1,0.07,0.17-0.02-0.03c0.02,0.05,0.08,0.11,0.11,0.16c0.31,0.45,0.54,0.93,0.77,1.43
			c0.06,0.15,0.05,0.07-0.01-0.03c0.04,0.06,0.06,0.14,0.08,0.2c0.05,0.13,0.11,0.27,0.16,0.4c0.1,0.26,0.2,0.53,0.29,0.79
			c0.16,0.46,0.32,0.92,0.5,1.37c0.21,0.53,0.73,0.95,1.33,0.76c0.51-0.16,0.98-0.77,0.76-1.33c-0.44-1.1-0.78-2.23-1.26-3.32
			c-0.47-1.05-1.13-2.24-2.21-2.77c-0.51-0.25-1.2-0.16-1.48,0.39C51.83,66.04,51.93,66.77,52.47,67.04L52.47,67.04z"/>
	</g>
</g>
<g>
	<g>
		<path class="st0" d="M56.1,72.93c1.4,0,1.4-2.17,0-2.17C54.7,70.76,54.7,72.93,56.1,72.93L56.1,72.93z"/>
	</g>
</g>
<g>
	<g>
		<path class="st0" d="M65.79,68.2c0.03,0.03,0.05,0.06,0.08,0.09c0.13,0.14-0.05-0.08-0.06-0.09c0.04,0.01,0.12,0.18,0.14,0.21
			c0.04,0.08,0.08,0.15,0.12,0.23s0.08,0.25-0.02-0.06c0.01,0.03,0.03,0.07,0.04,0.1c0.14,0.38,0.25,0.77,0.34,1.16
			c0.21,0.83,0.4,1.69,0.83,2.44c0.28,0.49,0.99,0.7,1.48,0.39c0.5-0.32,0.69-0.96,0.39-1.48c-0.04-0.08-0.09-0.15-0.12-0.23
			c-0.04-0.08-0.09-0.25,0.02,0.06c-0.02-0.04-0.03-0.09-0.05-0.13c-0.07-0.19-0.13-0.39-0.19-0.58c-0.11-0.4-0.21-0.81-0.31-1.21
			c-0.22-0.87-0.51-1.77-1.15-2.43c-0.4-0.41-1.14-0.43-1.53,0C65.39,67.11,65.37,67.77,65.79,68.2L65.79,68.2z"/>
	</g>
</g>
<g>
	<g>
		<path class="st0" d="M68.3,73.03c1.4,0,1.4-2.17,0-2.17C66.91,70.86,66.9,73.03,68.3,73.03L68.3,73.03z"/>
	</g>
</g>
<g>
	<g>
		<path class="st0" d="M17.43,72.93c5,0.02,9.97,0.68,14.97,0.88c2.32,0.09,4.52-0.23,6.81-0.54c2.48-0.34,4.99-0.24,7.48-0.24
			c4.9,0,9.8,0.03,14.7,0.27c5.04,0.24,10.08,0.55,15.12,0.56c1.4,0,1.4-2.17,0-2.17c-5.05-0.01-10.08-0.32-15.12-0.56
			c-4.9-0.23-9.79-0.27-14.7-0.27c-2.44,0-4.89-0.1-7.31,0.21c-2.35,0.3-4.6,0.66-6.98,0.56c-5-0.2-9.96-0.86-14.97-0.88
			C16.03,70.76,16.03,72.92,17.43,72.93L17.43,72.93z"/>
	</g>
</g>
<g>
	<g>
		<path class="st0" d="M76.92,73.75c1.4,0,1.4-2.17,0-2.17S75.52,73.75,76.92,73.75L76.92,73.75z"/>
	</g>
</g>
</svg>
