<?xml version="1.0" encoding="utf-8"?>
<!-- Generator: Adobe Illustrator 24.3.0, SVG Export Plug-In . SVG Version: 6.00 Build 0)  -->
<svg version="1.1" id="Layer_1" xmlns="http://www.w3.org/2000/svg" xmlns:xlink="http://www.w3.org/1999/xlink" x="0px" y="0px"
	 viewBox="0 0 75.43 81.42" style="enable-background:new 0 0 75.43 81.42;" xml:space="preserve">
<style type="text/css">
	.st0{fill:#FFFFFF;}
</style>
<path class="st0" d="M43.14,7c2.52,0,5.04,0,7.56,0c1.38,0.17,2.76,0.34,4.17,0.51c0,3.61,0,7.11,0,10.77c-0.92,0-1.77-0.02-2.61,0
	c-1.96,0.06-3.93,0.03-5.87,0.26c-2.16,0.25-3.59,1.58-3.72,3.73c-0.19,3.15-0.05,6.31-0.05,9.63c3.97,0,7.82,0,11.87,0
	c-0.53,4.11-1.03,8.03-1.56,12.12c-3.53,0-6.92,0-10.4,0c0,10.47,0,20.74,0,31.02c-4.13,0-8.27,0-12.4,0
	c-0.03-0.6-0.09-1.2-0.09-1.8c-0.01-9.11,0-18.23,0-27.34c0-0.59,0-1.17,0-1.94c-3.59,0-6.98,0-10.39,0c0-4.12,0-8.05,0-12.18
	c3.51,0,6.9,0,10.46,0c0-3.8-0.13-7.43,0.03-11.04c0.29-6.42,4.26-11.39,10.24-13.09C41.29,7.4,42.22,7.22,43.14,7z"/>
</svg>
