<?xml version="1.0" encoding="utf-8"?>
<!-- Generator: Adobe Illustrator 24.3.0, SVG Export Plug-In . SVG Version: 6.00 Build 0)  -->
<svg version="1.1" id="Layer_1" xmlns="http://www.w3.org/2000/svg" xmlns:xlink="http://www.w3.org/1999/xlink" x="0px" y="0px"
	 viewBox="0 0 64 59" style="enable-background:new 0 0 64 59;" xml:space="preserve">
<style type="text/css">
	.st0{fill:#C3203A;}
</style>
<path class="st0" d="M37.99,27.8c-4.4,0-8.7,0-13.06,0c0,5.67,0,11.29,0,17c1.28,0,2.53,0,3.85,0c0,2.74,0,5.39,0,8.09
	c-6.3,0-12.59,0-18.92,0c0-2.68,0-5.31,0-8.05c1.34,0,2.65,0,4,0c0-5.73,0-11.36,0-17.08c-1.43,0-2.83,0-4.29,0
	c0-2.73,0-5.36,0-8.09c1.4,0,2.8,0,4.41,0c0-1.05-0.09-2.03,0.02-2.98c0.62-5.5,3.51-8.76,8.91-10.14c2.85-0.73,5.73-0.74,8.63-0.46
	c0.21,0.02,0.42,0.11,0.64,0.17c0,2.89,0,5.74,0,8.59c-0.85,0-1.66-0.01-2.47,0c-0.47,0-0.95,0.01-1.42,0.05
	c-2.45,0.18-3.41,1.23-3.41,3.68c0,0.31,0,0.62,0,1.04c8.04,0,16.03,0,24.11,0c0,8.44,0,16.77,0,25.2c1.37,0,2.65,0,4.01,0
	c0,2.74,0,5.39,0,8.09c-6.06,0-12.1,0-18.21,0c0-2.64,0-5.27,0-8.03c1.03,0,2.08,0,3.19,0C37.99,39.12,37.99,33.5,37.99,27.8z"/>
<path class="st0" d="M38.26,10.68c0.02-2.98,2.44-5.42,5.32-5.37c2.87,0.05,5.2,2.47,5.21,5.4c0.01,2.98-2.38,5.41-5.29,5.4
	C40.57,16.1,38.24,13.68,38.26,10.68z"/>
</svg>
