<?xml version="1.0" encoding="utf-8"?>
<!-- Generator: Adobe Illustrator 24.3.0, SVG Export Plug-In . SVG Version: 6.00 Build 0)  -->
<svg version="1.1" id="Layer_1" xmlns="http://www.w3.org/2000/svg" xmlns:xlink="http://www.w3.org/1999/xlink" x="0px" y="0px"
	 viewBox="0 0 75.43 81.42" style="enable-background:new 0 0 75.43 81.42;" xml:space="preserve">
<style type="text/css">
	.st0{fill:#FFFFFF;}
</style>
<path class="st0" d="M66.04,24.39c0,9.56,0,19.13,0,28.69c-0.73,2.18-1.15,4.53-2.24,6.51c-2.21,4.05-5.98,6.09-10.42,6.99
	c-10.22,0-20.44,0-30.66,0c-0.21-0.08-0.42-0.19-0.64-0.23c-3.8-0.68-6.82-2.6-9.14-5.67c-1.65-2.18-2.36-4.7-2.87-7.32
	c0-9.75,0-19.5,0-29.26c0.08-0.26,0.2-0.52,0.23-0.79c0.42-3.21,1.84-5.93,4.09-8.23c2.3-2.35,5.19-3.53,8.34-4.21
	c10.22,0,20.44,0,30.66,0c4.01,0.82,7.4,2.63,9.87,6.01C64.89,19.15,65.59,21.72,66.04,24.39z M38.23,61.82c0-0.01,0-0.02,0-0.03
	c4.54,0,9.09,0.08,13.63-0.02c5.25-0.11,9.32-4.35,9.34-9.64c0.03-8.95,0.02-17.89,0.01-26.84c-0.01-5.24-4.31-9.57-9.57-9.58
	c-8.76-0.03-17.52,0-26.28-0.01c-6.37-0.01-10.49,4.21-10.44,10.6c0.06,8.34,0.06,16.67,0.01,25.01
	c-0.04,6.29,4.06,10.51,10.38,10.52C29.6,61.83,33.91,61.82,38.23,61.82z"/>
<path class="st0" d="M38.16,52.62c-7.75,0.02-13.99-6.16-13.99-13.85c0-7.72,6.23-13.85,14.12-13.87
	C45.7,24.89,51.96,31.15,52,38.62C52.04,46.36,45.87,52.6,38.16,52.62z M38.29,29.19c-5.31-0.12-9.76,4.14-9.85,9.4
	c-0.09,5.28,4.19,9.68,9.51,9.77c5.26,0.08,9.63-4.1,9.77-9.35C47.86,33.72,43.62,29.31,38.29,29.19z"/>
<path class="st0" d="M50.27,23.41c-0.03-1.79,1.38-3.26,3.14-3.28c1.79-0.02,3.26,1.39,3.3,3.14c0.04,1.75-1.38,3.22-3.17,3.28
	C51.8,26.62,50.3,25.17,50.27,23.41z"/>
</svg>
