<?xml version="1.0" encoding="utf-8"?>
<!-- Generator: Adobe Illustrator 24.3.0, SVG Export Plug-In . SVG Version: 6.00 Build 0)  -->
<svg version="1.1" id="Layer_1" xmlns="http://www.w3.org/2000/svg" xmlns:xlink="http://www.w3.org/1999/xlink" x="0px" y="0px"
	 viewBox="0 0 75.43 81.42" style="enable-background:new 0 0 75.43 81.42;" xml:space="preserve">
<style type="text/css">
	.st0{fill:#FFFFFF;}
</style>
<path class="st0" d="M68.25,68.29c-4.29,0-8.47,0-12.76,0c0-1.18,0-2.31,0-3.45c0-5.66,0.03-11.33-0.01-16.99
	c-0.01-1.26-0.13-2.54-0.41-3.76c-0.56-2.39-1.88-4.19-4.43-4.7c-2.78-0.56-5.12,0.25-6.92,2.47c-1.22,1.5-1.61,3.25-1.6,5.15
	c0.02,6.72,0.01,13.44,0.02,20.16c0,0.35,0,0.71,0,1.12c-4.26,0-8.43,0-12.66,0c0-12.71,0-25.4,0-38.15c4.2,0,8.37,0,12.64,0
	c0,1.7,0,3.36,0,5.12c0.18-0.12,0.27-0.14,0.31-0.2c3.24-4.87,7.92-6.45,13.5-5.72c6.39,0.84,10.66,5.05,11.8,11.78
	c0.46,2.71,0.49,5.51,0.53,8.28c0.07,5.72,0.02,11.45,0.02,17.17C68.25,67.1,68.25,67.64,68.25,68.29z"/>
<path class="st0" d="M22.32,68.3c-4.21,0-8.36,0-12.59,0c0-12.72,0-25.41,0-38.16c4.19,0,8.37,0,12.59,0
	C22.32,42.84,22.32,55.51,22.32,68.3z"/>
<path class="st0" d="M16.12,11.63c5.18-0.01,8.46,4.5,6.59,9.14c-1.05,2.6-3.17,3.74-5.84,4.04c-3.65,0.42-6.81-1.5-7.72-4.68
	C7.84,15.58,11.06,11.64,16.12,11.63z"/>
</svg>
