<?xml version="1.0" encoding="utf-8"?>
<!-- Generator: Adobe Illustrator 24.3.0, SVG Export Plug-In . SVG Version: 6.00 Build 0)  -->
<svg version="1.1" id="Layer_1" xmlns="http://www.w3.org/2000/svg" xmlns:xlink="http://www.w3.org/1999/xlink" x="0px" y="0px"
	 viewBox="0 0 93.36 81.42" style="enable-background:new 0 0 93.36 81.42;" xml:space="preserve">
<style type="text/css">
	.st0{fill:#FFFFFF;}
	.st1{fill:#C31E39;}
</style>
<g>
	<g>
		<path class="st0" d="M44.77,9.38c0,20.53,0,41.05,0,61.58c0,1.21,1.88,1.21,1.88,0c0-20.53,0-41.05,0-61.58
			C46.65,8.18,44.77,8.17,44.77,9.38L44.77,9.38z"/>
	</g>
</g>
<g>
	<g>
		<path class="st0" d="M29.19,57.63c11.27-0.01,22.54-0.73,33.79,0c-0.22-0.53-0.44-1.07-0.66-1.6
			c-5.59,7.06-14.68,10.21-20.28,17.27c0.49,0.06,0.98,0.13,1.47,0.19c-4.69-6.35-6.89-14.34-12.91-19.72
			c-0.9-0.8-2.23,0.52-1.33,1.33c5.89,5.25,8.03,13.13,12.62,19.34c0.32,0.43,1.06,0.71,1.47,0.19
			c5.59-7.06,14.68-10.21,20.28-17.27c0.51-0.64,0.2-1.55-0.66-1.6c-11.26-0.73-22.53-0.01-33.79,0
			C27.98,55.76,27.98,57.64,29.19,57.63L29.19,57.63z"/>
	</g>
</g>
<path d="M76.83,46.65c1.5-1.62,2.85-3.06,4.29-4.61c0.43,0.47,0.66,0.74,0.94,1.04c-1.56,1.54-3.09,3.04-4.66,4.59
	c2.17,2.15,4.19,4.14,6.25,6.18c-0.37,0.39-0.62,0.65-0.88,0.92c-2.03-2.06-4.03-4.08-5.95-6.03c-2.98,3-5.78,5.81-8.69,8.73
	c1.91,1.89,3.93,3.9,6.03,5.98c-0.31,0.29-0.58,0.53-0.84,0.78c-2.05-2.04-4.06-4.05-6.01-5.99c-2.77,2.77-5.41,5.42-8.1,8.11
	c1.9,1.89,3.92,3.89,6.07,6.02c-0.42,0.36-0.7,0.61-1.02,0.89c-2.03-2.04-4.01-4.05-5.99-6.04c-1.78,1.8-3.48,3.51-5.25,5.3
	c-0.46-0.45-0.74-0.72-1.19-1.16c1.54-1.49,2.98-2.89,4.59-4.45c-0.59,0-0.97,0-1.36,0c-2.53,0.01-5.05-0.01-7.58,0.06
	c-0.85,0.02-1.22-0.27-1.48-1.08c-2.47-7.68-4.98-15.35-7.48-23.02c-2.06-6.31-4.14-12.62-6.19-18.94c-0.14-0.43-0.04-0.93-0.04-1.4
	c0.47,0.02,0.97-0.08,1.4,0.06c13.96,4.53,27.91,9.1,41.88,13.63c0.88,0.28,1.2,0.69,1.18,1.62c-0.05,2.63,0,5.25,0.02,7.88
	C76.77,45.93,76.8,46.15,76.83,46.65z M35.64,24.61c-0.04,0.05-0.09,0.11-0.13,0.16c0.22,0.24,0.43,0.49,0.67,0.72
	c6.04,6.04,12.09,12.07,18.11,18.14c0.65,0.66,1.08,0.83,1.98,0.34c2.16-1.2,4.9-0.68,6.61,1.06c1.74,1.76,2.15,4.43,1.03,6.64
	c-1.11,2.19-3.52,3.42-5.99,3.06c-2.39-0.35-4.28-2.2-4.75-4.63c-0.32-1.69,0.13-3.21,0.92-4.37c-6.62-6.62-13.16-13.16-19.6-19.6
	c0.02,0.09,0.08,0.38,0.17,0.65c4.12,12.69,8.25,25.38,12.36,38.08c0.2,0.6,0.47,0.84,1.12,0.82c2.96-0.05,5.92-0.03,8.87-0.1
	c0.47-0.01,1.04-0.25,1.37-0.58c5.5-5.45,10.98-10.93,16.43-16.43c0.35-0.35,0.59-0.97,0.6-1.46c0.05-2.82-0.03-5.65,0.03-8.48
	c0.02-0.87-0.3-1.19-1.09-1.44c-9.64-3.1-19.26-6.25-28.89-9.38C42.2,26.74,38.92,25.68,35.64,24.61z M63.23,49.07
	c0-2.45-1.99-4.46-4.42-4.47c-2.43-0.01-4.43,2-4.44,4.45c-0.01,2.44,1.98,4.45,4.42,4.45C61.23,53.51,63.22,51.52,63.23,49.07z"/>
<path class="st1" d="M65.89,16.84c2.25-2.2,2.17-1.46,3.79,0.1c0.67,0.65,1.32,1.31,1.97,1.98c0.53,0.54,0.53,1.11,0,1.65
	c-1,1.02-2.02,2.03-3.03,3.04c-0.58,0.58-1.16,0.56-1.73-0.02c-0.92-0.92-1.84-1.83-2.75-2.75c-0.84-0.85-0.84-1.33-0.01-2.18
	c0.23-0.23,0.45-0.47,0.67-0.71c-8.33-8.22-24.6-10.34-35.82,0.36C17.71,29.05,18.9,45.84,27.69,55c0.1-0.06,0.23-0.11,0.31-0.21
	c1.36-1.58,1.89-1.29,3.09,0.01c0.72,0.78,1.49,1.52,2.25,2.26c0.61,0.6,0.62,1.2,0.02,1.81c-0.99,0.99-1.97,1.98-2.96,2.96
	c-0.57,0.56-1.17,0.55-1.74-0.02c-0.92-0.91-1.84-1.83-2.75-2.75c-0.84-0.85-0.84-1.32,0.01-2.16c0.26-0.26,0.57-0.45,0.85-0.67
	c-10.04-11.04-9.64-27.91,0.62-38.33C37.72,7.39,54.81,6.79,65.89,16.84z M70.34,19.83c-0.91-0.92-1.77-1.81-2.56-2.61
	c-0.87,0.83-1.77,1.69-2.56,2.44c0.86,0.92,1.71,1.82,2.57,2.74C68.66,21.52,69.52,20.66,70.34,19.83z M29.38,60.49
	c0.94-0.91,1.83-1.78,2.61-2.54c-0.77-0.82-1.61-1.71-2.35-2.5c-0.9,0.89-1.79,1.76-2.67,2.63C27.78,58.89,28.65,59.75,29.38,60.49z
	"/>
</svg>
