<?xml version="1.0" encoding="utf-8"?>
<!-- Generator: Adobe Illustrator 24.3.0, SVG Export Plug-In . SVG Version: 6.00 Build 0)  -->
<svg version="1.1" id="Layer_1" xmlns="http://www.w3.org/2000/svg" xmlns:xlink="http://www.w3.org/1999/xlink" x="0px" y="0px"
	 viewBox="0 0 93.36 81.42" style="enable-background:new 0 0 93.36 81.42;" xml:space="preserve">
<style type="text/css">
	.st0{fill:#C31F39;}
</style>
<g>
	<path d="M24.76,17.69c0.18-0.09,0.37-0.27,0.55-0.27c1.86-0.02,3.72-0.01,5.61-0.01c0,0.39,0,0.71,0,1.12c-1.65,0-3.29,0-4.98,0
		c0,9.92,0,19.75,0,29.52c2.65,0,5.3,0,7.78,0c0.2-0.56,0.28-1.03,0.52-1.39c1.87-2.78,3.78-5.53,5.68-8.29
		c0.54-0.79,0.86-0.78,1.41,0.02c0.8,1.17,1.61,2.33,2.41,3.5c0.23,0.34,0.49,0.72,0.04,1.05c-0.46,0.33-0.73-0.03-0.97-0.37
		c-0.71-1.02-1.41-2.04-2.19-3.16c-1.99,2.89-3.92,5.69-5.9,8.57c2.44,0,4.76,0,6.95,0c0.16-0.47,0.22-0.93,0.45-1.28
		c3.03-4.67,6.09-9.32,9.14-13.98c0.52-0.8,0.87-0.79,1.39,0.01c3.05,4.66,6.1,9.31,9.13,13.98c0.22,0.33,0.28,0.76,0.46,1.29
		c0.93,0,2.07,0,3.24,0c0-9.73,0-19.52,0-29.4c-1.7,0-3.36,0-5.08,0c0-0.43,0-0.76,0-1.2c0.45,0,0.89,0,1.33,0c1.32,0,2.64,0,3.97,0
		c0.89,0,1,0.11,1,0.97c0,4.08,0,8.17,0,12.25c0,12.46,0,24.92,0,37.39c0,2.08,0,4.15,0,6.23c0,0.82-0.13,0.96-0.94,0.96
		c-13.36,0-26.72,0-40.08-0.01c-0.3,0-0.61-0.18-0.91-0.27C24.76,55.84,24.76,36.77,24.76,17.69z M25.96,49.08c0,8.3,0,16.62,0,24.9
		c13.2,0,26.33,0,39.48,0c0-8.33,0-16.6,0-24.9 M61.26,47.98c-3.13-4.78-6.19-9.46-9.31-14.22c-3.13,4.79-6.19,9.47-9.3,14.22
		C48.89,47.98,55.01,47.98,61.26,47.98z"/>
	<path d="M34.67,4.81c0.1,0.54,0.27,1.07,0.28,1.61c0.03,2.17,0.01,4.34,0.01,6.5c0,0.33,0,0.65,0,1.04
		c0.57,0.03,1.07,0.05,1.67,0.08c0,0.94,0,1.85,0,2.76c0,0.92,0,1.83,0,2.88c-0.38,0-0.72,0-1.06,0c-1.06,0-2.12-0.01-3.18,0
		c-0.56,0.01-0.82-0.19-0.81-0.78c0.02-1.39,0.02-2.78,0-4.17c0-0.51,0.21-0.74,0.72-0.73c0.47,0.01,0.94,0,1.46,0
		c0.02-0.26,0.05-0.46,0.05-0.66c0.01-2.31-0.01-4.62,0.02-6.93c0.01-0.54,0.18-1.08,0.27-1.62C34.29,4.81,34.48,4.81,34.67,4.81z
		 M32.83,18.4c0.9,0,1.71,0,2.53,0c0-1.07,0-2.08,0-3.12c-0.87,0-1.68,0-2.53,0C32.83,16.33,32.83,17.35,32.83,18.4z"/>
	<path d="M57.33,4.81c0.1,0.54,0.27,1.08,0.27,1.62c0.03,2.26,0.02,4.52,0.02,6.79c0,0.23,0,0.46,0,0.75
		c0.52,0.03,0.98,0.05,1.47,0.08c0,1.86,0,3.69,0,5.65c-1,0-2,0-3,0c-1.72,0-1.72,0-1.72-1.7c0-1.13,0.01-2.26-0.01-3.39
		c-0.01-0.43,0.15-0.6,0.57-0.59c0.47,0.02,0.94,0,1.52,0c0-0.33,0-0.6,0-0.87c0-2.26-0.02-4.53,0.01-6.79
		c0.01-0.52,0.18-1.03,0.28-1.54C56.96,4.81,57.14,4.81,57.33,4.81z M55.48,18.4c0.9,0,1.71,0,2.54,0c0-1.07,0-2.08,0-3.09
		c-0.88,0-1.71,0-2.54,0C55.48,16.36,55.48,17.36,55.48,18.4z"/>
	<path d="M53.6,17.47c0,0.37,0,0.68,0,1.03c-5.2,0-10.37,0-15.59,0c0-0.33,0-0.65,0-1.03C43.17,17.47,48.36,17.47,53.6,17.47z"/>
	<path d="M37.21,29.29c0.01,1.58-1.24,2.85-2.8,2.85c-1.59,0-2.84-1.23-2.85-2.8c-0.01-1.57,1.24-2.83,2.81-2.85
		C35.94,26.47,37.21,27.72,37.21,29.29z M34.35,31.02c0.85,0.02,1.69-0.78,1.73-1.65c0.04-0.88-0.79-1.76-1.67-1.77
		c-0.88-0.01-1.68,0.76-1.72,1.65C32.64,30.13,33.46,31,34.35,31.02z"/>
	<path class="st0" d="M45.8,67.28c5.09,0,10.19,0,15.28,0c1,0,1.04,0.05,1.05,1.04c0,0.45,0.01,0.9,0.01,1.34
		c0,0.88-0.11,0.99-0.97,0.99c-4.62,0-9.24,0.01-13.87,0.01c-5.64,0-11.27,0-16.91-0.01c-1.03,0-1.1-0.07-1.09-1.08
		c0-0.4,0-0.8,0-1.2c0.01-1.06,0.04-1.09,1.07-1.09c3.4,0,6.79,0,10.19,0C42.31,67.28,44.05,67.28,45.8,67.28z M30.55,69.39
		c10.16,0,20.23,0,30.34,0c0.01-0.31,0.03-0.58,0.04-0.87c-10.18,0-20.28,0-30.43,0C30.52,68.84,30.54,69.09,30.55,69.39z"/>
	<path class="st0" d="M45.73,57.07c-5.16,0-10.33,0.01-15.49-0.01c-0.29,0-0.68-0.11-0.85-0.32c-0.31-0.38,0.08-0.81,0.73-0.82
		c2.99-0.01,5.99-0.01,8.98-0.01c7.31,0,14.62,0,21.93,0.01c0.14,0,0.31-0.05,0.42,0.01c0.25,0.15,0.62,0.32,0.67,0.55
		c0.09,0.43-0.27,0.59-0.68,0.59c-1.18,0-2.36,0-3.54,0C53.84,57.08,49.78,57.08,45.73,57.07C45.73,57.08,45.73,57.08,45.73,57.07z"
		/>
	<path class="st0" d="M45.72,58.19c5.07,0,10.15-0.01,15.22,0.01c0.47,0,1.2-0.2,1.17,0.6c-0.03,0.73-0.71,0.53-1.17,0.53
		c-10.15,0.01-20.29,0.01-30.44,0.01c-0.14,0-0.28,0-0.42,0c-0.43,0.01-0.83-0.12-0.74-0.6c0.04-0.22,0.48-0.51,0.74-0.52
		c2.29-0.04,4.58-0.03,6.87-0.03C39.87,58.18,42.79,58.19,45.72,58.19z"/>
	<path class="st0" d="M45.79,60.45c2.36,0,4.71,0,7.07,0c0.19,0,0.38,0.01,0.57,0.01c0.42,0,0.79,0.08,0.78,0.59
		c-0.02,0.5-0.41,0.56-0.82,0.56c-1.34,0-2.69,0-4.03,0c-3.68,0-7.35,0-11.03,0c-0.05,0-0.09,0-0.14,0c-0.43,0-0.93,0.04-0.95-0.57
		c-0.02-0.62,0.49-0.59,0.92-0.59C40.7,60.46,43.25,60.46,45.79,60.45C45.79,60.46,45.79,60.45,45.79,60.45z"/>
</g>
</svg>
