<?xml version="1.0" encoding="utf-8"?>
<!-- Generator: Adobe Illustrator 24.3.0, SVG Export Plug-In . SVG Version: 6.00 Build 0)  -->
<svg version="1.1" id="Layer_1" xmlns="http://www.w3.org/2000/svg" xmlns:xlink="http://www.w3.org/1999/xlink" x="0px" y="0px"
	 viewBox="0 0 93.36 81.42" style="enable-background:new 0 0 93.36 81.42;" xml:space="preserve">
<style type="text/css">
	.st0{fill:#231F20;stroke:#000000;stroke-width:0.5;stroke-miterlimit:10;}
</style>
<g>
	<g>
		<g>
			<path class="st0" d="M24.43,69.41c1.22-1.38,2.45-2.76,3.67-4.14c0.17-0.19,0.34-0.39,0.51-0.58c0.21-0.24,0.3-0.62,0.12-0.91
				c-0.18-0.28-0.52-0.44-0.85-0.34c-0.56,0.16-1.11,0.34-1.65,0.56c-0.3,0.12-0.61,0.25-0.9,0.4c-0.13,0.06-0.28,0.12-0.4,0.2
				c-0.23,0.15-0.32,0.37-0.41,0.62c-0.43,1.16-0.88,2.32-1.35,3.47c-0.15,0.36,0.16,0.84,0.52,0.92c0.44,0.1,0.76-0.13,0.92-0.52
				c0.5-1.2,0.97-2.42,1.42-3.64c-0.11,0.15-0.23,0.3-0.34,0.45c0.83-0.44,1.66-0.74,2.59-1.01c-0.24-0.42-0.49-0.84-0.73-1.25
				c-1.22,1.38-2.45,2.76-3.67,4.14c-0.17,0.19-0.34,0.39-0.51,0.58c-0.26,0.29-0.31,0.78,0,1.06
				C23.65,69.67,24.15,69.72,24.43,69.41z"/>
		</g>
	</g>
	<g>
		<g>
			<path class="st0" d="M24.61,66.52c0.2-0.13,0.4-0.26,0.6-0.37c0.1-0.06,0.2-0.11,0.3-0.17c0.05-0.03,0.1-0.06,0.16-0.08
				c0.04-0.02,0.06-0.04,0.1-0.07c0.06-0.03,0.1-0.08,0.13-0.13c0.05-0.05,0.08-0.1,0.1-0.17c0.02-0.06,0.05-0.11,0.07-0.17
				c0.01-0.07,0.02-0.13,0.03-0.2c-0.01-0.07-0.02-0.13-0.03-0.2c-0.03-0.06-0.05-0.12-0.08-0.18c-0.05-0.09-0.11-0.16-0.19-0.21
				c-0.05-0.05-0.1-0.08-0.17-0.1c-0.06-0.03-0.12-0.05-0.19-0.05c-0.07-0.02-0.13-0.02-0.2,0c-0.1,0-0.19,0.03-0.28,0.09
				c-0.37,0.24-0.74,0.48-1.11,0.72c-0.16,0.11-0.29,0.26-0.34,0.45c-0.03,0.1-0.04,0.2-0.01,0.3c0,0.1,0.03,0.19,0.09,0.28
				c0.1,0.16,0.26,0.3,0.45,0.34C24.23,66.64,24.44,66.64,24.61,66.52c0.37-0.24,0.74-0.48,1.11-0.72c-0.37-0.28-0.73-0.56-1.1-0.85
				c-0.01,0.03-0.02,0.05-0.03,0.08c0.11-0.15,0.23-0.3,0.34-0.45c-0.37,0.2-0.73,0.41-1.08,0.64c-0.16,0.11-0.29,0.26-0.34,0.45
				c-0.03,0.1-0.04,0.2-0.01,0.3c0,0.1,0.03,0.19,0.09,0.28c0.1,0.16,0.26,0.3,0.45,0.34C24.22,66.64,24.44,66.64,24.61,66.52z"/>
		</g>
	</g>
	<g>
		<g>
			<path class="st0" d="M56.43,33.35c-1.02-1.02-2.22-2.19-3.67-2.55c-1.09-0.27-2.13,0.06-3.1,0.57c-1.32,0.7-2.54,1.56-3.86,2.25
				c-1.51,0.78-3.11,1.33-4.71,1.89c-2.47,0.86-5.02,1.73-6.9,3.65c-2.67,2.75-3.56,6.75-4.64,10.3c-1.58,5.19-3.07,10.4-4.93,15.5
				c-0.22,0.61,0.57,1.19,1.1,0.85c0.78-0.51,1.55-1.02,2.32-1.54c0.79-0.53,1.73-1.03,2.43-1.69c0.2-0.19,0.38-0.43,0.56-0.64
				c1.15-1.3,2.3-2.59,3.45-3.89c2.64-2.98,5.29-5.97,7.93-8.95c0.28-0.31,0.75-0.71,0.77-1.15c0.03-0.7-0.29-1.36,0.1-2.03
				c0.37-0.64,1.15-0.5,1.75-0.33c-0.18-0.24-0.37-0.48-0.55-0.72c-0.01,0.39-0.19,0.9-0.09,1.28c0.07,0.25,0.28,0.4,0.46,0.57
				c0.31,0.29,0.61,0.62,0.86,0.96c0.51,0.68,0.96,1.45,1.17,2.28c0.07,0.28,0.08,0.55,0.06,0.72c-0.01,0.05-0.05,0.16-0.01,0.05
				c-0.04,0.11,0.05-0.01-0.04,0.07c0.04-0.03-0.07,0.04-0.15,0.06c-0.9,0.18-2.21-0.54-2.78-1.28c-0.35-0.46-0.95-0.5-1.3,0
				c-2.33,3.39-5.59,6.14-8.8,8.66c-0.84,0.66-1.7,1.3-2.56,1.93c-0.63,0.46-1.39,0.87-1.94,1.42c-0.64,0.63-1.21,1.36-1.81,2.04
				c-0.48,0.54-0.02,1.46,0.73,1.25c1.48-0.4,3-0.62,4.52-0.78c1.23-0.13,2.45-0.33,3.69-0.46c2.2-0.24,4.42-0.29,6.63-0.38
				c4.21-0.16,8.65-0.36,12.47-2.32c1.89-0.97,3.5-2.4,4.72-4.14c1-1.43,1.84-3.01,2.64-4.56c0.95-1.85,1.85-3.75,2.51-5.73
				c0.47-1.4,1.07-3.28,0.4-4.71c-0.37-0.79-1.03-1.47-1.65-2.07c-0.84-0.82-1.76-1.56-2.68-2.28
				C59.84,36.1,57.98,34.87,56.43,33.35c-0.69-0.68-1.75,0.38-1.06,1.06c2.67,2.64,6.21,4.37,8.63,7.27
				c0.4,0.48,0.61,0.85,0.63,1.38c0.02,0.71-0.14,1.42-0.33,2.1c-0.52,1.9-1.35,3.72-2.22,5.49c-1.61,3.25-3.34,6.72-6.57,8.62
				c-3.5,2.06-7.76,2.29-11.71,2.46c-2.35,0.1-4.71,0.14-7.06,0.38c-1.31,0.13-2.61,0.35-3.93,0.49c-1.66,0.17-3.31,0.4-4.92,0.84
				c0.24,0.42,0.49,0.84,0.73,1.25c0.59-0.67,1.15-1.46,1.82-2.06c0.61-0.55,1.38-0.99,2.04-1.48c0.88-0.65,1.75-1.31,2.61-1.99
				c3.27-2.57,6.5-5.39,8.87-8.83c-0.43,0-0.86,0-1.3,0c0.9,1.2,2.32,2.01,3.85,2.04c0.92,0.01,1.72-0.49,1.9-1.43
				c0.18-0.97-0.24-2-0.68-2.85c-0.52-1-1.24-1.93-2.09-2.66c0.06,0.24,0.13,0.49,0.19,0.73c0.07-0.42,0.13-0.85,0.14-1.28
				c0.01-0.33-0.24-0.63-0.55-0.72c-1.16-0.33-2.47-0.29-3.25,0.74c-0.71,0.92-0.69,2.17-0.47,3.26c0.06-0.24,0.13-0.49,0.19-0.73
				c-3.96,4.47-7.92,8.95-11.88,13.42c-0.19,0.22-0.38,0.48-0.6,0.67c-0.63,0.55-1.44,0.99-2.13,1.46
				c-0.77,0.52-1.54,1.03-2.32,1.54c0.37,0.28,0.73,0.56,1.1,0.85c1.58-4.31,2.88-8.7,4.2-13.09c0.64-2.14,1.29-4.27,1.98-6.39
				c0.53-1.64,1.15-3.23,2.16-4.65c1.43-2.02,3.6-3.04,5.87-3.85c1.37-0.49,2.75-0.95,4.1-1.49c1.57-0.63,3.05-1.42,4.49-2.31
				c0.89-0.55,1.99-1.39,3.03-1.4c1.33,0,2.58,1.34,3.46,2.22C56.06,35.09,57.12,34.03,56.43,33.35z"/>
		</g>
	</g>
	<g>
		<g>
			<path class="st0" d="M45.65,45.42c-0.23-0.19-0.46-0.37-0.7-0.53c-0.26-0.17-0.7-0.12-0.91,0.12c-0.37,0.41-0.73,0.83-1.1,1.24
				c-0.25,0.28-0.49,0.55-0.74,0.83c-0.17,0.19-0.43,0.42-0.49,0.67c-0.07,0.27,0.04,0.58,0.11,0.84c0.07,0.23,0.16,0.46,0.26,0.68
				c0.16,0.37,0.35,0.73,0.59,1.06c0.34,0.47,0.96,0.49,1.3,0c0.85-1.26,1.59-2.67,1.88-4.17c0.07-0.38-0.11-0.83-0.52-0.92
				c-0.37-0.08-0.84,0.11-0.92,0.52c-0.27,1.43-0.9,2.58-1.73,3.82c0.43,0,0.86,0,1.3,0c-0.21-0.29-0.38-0.59-0.53-0.92
				c-0.07-0.15,0.01,0.04-0.04-0.1c-0.03-0.1-0.07-0.19-0.1-0.29c-0.05-0.17-0.1-0.34-0.14-0.51c-0.06,0.24-0.13,0.49-0.19,0.73
				c0.71-0.8,1.42-1.61,2.14-2.41c-0.3,0.04-0.61,0.08-0.91,0.12c0.08,0.05,0.17,0.11,0.25,0.17c0.07,0.05,0.08,0.06,0.03,0.02
				c0.04,0.03,0.08,0.07,0.12,0.1c0.3,0.25,0.77,0.32,1.06,0C45.9,46.21,45.97,45.69,45.65,45.42z"/>
		</g>
	</g>
	<g>
		<g>
			<path class="st0" d="M74.88,31.17c-2.21-3.09-4.44-6.16-6.63-9.26c-1.81-2.58-3.62-5.22-5.89-7.43c-1.2-1.17-2.55-2.23-4.09-2.91
				c-0.28-0.12-0.69-0.16-0.91,0.12c-2.5,3.18-3.16,7.72-6.51,10.22c-0.32,0.24-0.5,0.65-0.27,1.03c1.77,2.9,4.38,5.09,6.96,7.24
				c1.29,1.07,2.59,2.14,3.77,3.32c1.04,1.04,1.91,2.2,2.82,3.35c1.63,2.06,3.54,4.39,6.12,5.26c3.03,1.03,5.52-1.15,7.09-3.53
				c0.78-1.18,1.61-2.74,0.87-4.13c-0.3-0.56-0.79-1.01-1.26-1.42c-0.74-0.66-1.49-1.29-2.2-1.99c-0.69-0.68-1.75,0.38-1.06,1.06
				c0.57,0.57,1.17,1.1,1.78,1.63c0.44,0.38,0.96,0.76,1.3,1.24c0.58,0.81-0.08,1.83-0.53,2.56c-1.26,2.06-3.33,4.15-5.9,3.03
				c-2.23-0.96-3.89-3.15-5.34-5c-0.82-1.05-1.62-2.1-2.56-3.04c-1.05-1.05-2.19-2.01-3.33-2.96c-2.64-2.2-5.43-4.38-7.24-7.36
				c-0.09,0.34-0.18,0.68-0.27,1.03c1.74-1.29,2.92-3.01,3.86-4.95c0.91-1.87,1.66-3.85,2.96-5.5c-0.3,0.04-0.61,0.08-0.91,0.12
				c3.51,1.54,5.96,4.92,8.12,7.94c2.65,3.71,5.29,7.42,7.94,11.13C74.14,32.7,75.44,31.95,74.88,31.17z"/>
		</g>
	</g>
</g>
</svg>
