<?xml version="1.0" encoding="utf-8"?>
<!-- Generator: Adobe Illustrator 24.3.0, SVG Export Plug-In . SVG Version: 6.00 Build 0)  -->
<svg version="1.1" id="Layer_1" xmlns="http://www.w3.org/2000/svg" xmlns:xlink="http://www.w3.org/1999/xlink" x="0px" y="0px"
	 viewBox="0 0 93.36 81.42" style="enable-background:new 0 0 93.36 81.42;" xml:space="preserve">
<style type="text/css">
	.st0{fill:none;stroke:#000000;stroke-width:2;stroke-miterlimit:10;}
	.st1{fill:none;stroke:#C31F39;stroke-width:0.613;stroke-miterlimit:10;}
	.st2{fill:none;stroke:#C31F39;stroke-width:0.75;stroke-miterlimit:10;}
	.st3{fill:none;stroke:#C31F39;stroke-width:0.6332;stroke-miterlimit:10;}
	.st4{fill:#FFFFFF;}
</style>
<path class="st0" d="M11.76,24.64c0.05-3.13,0.15-5.4,0.28-6.65c0.12-1.12,0.42-2.81,1.69-4.07c1.43-1.43,3.36-1.67,4.07-1.69
	c19.83-0.38,29.92-1.39,59.82,0c0.79,0.04,2.73,0.27,4.07,1.69c1.36,1.44,1.64,3.68,1.69,4.07c0.08,0.72,0.05,1.33,0,1.77"/>
<path class="st0" d="M53.19,59.17H17.8c-3.18,0-5.76-2.58-5.76-5.76c-0.09-3.39-0.15-6.62-0.21-9.65"/>
<path class="st0" d="M83.38,37.69v15.72c0.01,3.18-2.57,5.76-5.75,5.76H65.71"/>
<line class="st0" x1="47.72" y1="59.82" x2="47.72" y2="69.42"/>
<line class="st0" x1="21.61" y1="68.79" x2="73.83" y2="68.79"/>
<circle class="st1" cx="14.21" cy="33.56" r="2.94"/>
<circle class="st1" cx="14.61" cy="27.78" r="1.08"/>
<path d="M87.33,255.59c0.12-35.35,28.68-63.86,63.95-63.84c35.46,0.02,64.21,28.94,63.97,64.35c-0.24,35.4-28.82,63.93-63.99,63.89
	C115.8,319.95,87.21,291.15,87.33,255.59z M122.89,250.7c0.67,7.06,4.2,11.28,10.15,14.14c-1.82,0.47-3.11,0.8-4.4,1.13
	c-0.24,0.51-0.49,1.03-0.73,1.54c3.99,3.04,7.97,6.08,12.91,9.85c-6.24,1.86-12.39,3.69-18.55,5.52c0.38,0.23,1.01,0.67,1.7,1.01
	c24.96,12.53,54.62-1.97,59.75-29.51c1.13-6.05,1.48-12.05,6.98-16.03c0.12-0.08-0.02-0.52-0.04-0.85c-1.6,0.24-3.16,0.48-5,0.77
	c1.44-2.3,2.66-4.25,4.33-6.91c-7.47,2.61-7.47,2.61-14.16-0.4c-8.39-3.78-18.23,1.12-20.28,10.17c-0.46,2.04-0.51,4.17-0.78,6.53
	c-12.08-0.66-21.54-6.25-29.74-14.96c-3.67,7.43-1.72,13.33,3.79,19.46C126.4,251.56,125.03,251.22,122.89,250.7z"/>
<path d="M35.02,255.92C35.01,291.23,6.4,320-28.72,320.01c-35.47,0.01-64.26-28.8-64.19-64.22c0.07-35.5,28.93-64.24,64.32-64.07
	C6.68,191.89,35.02,220.5,35.02,255.92z M-28.87,281.36c7.98,0,15.97,0.04,23.95-0.01c8.16-0.05,12.37-4.12,12.46-12.19
	c0.1-8.81,0.09-17.63,0.01-26.45c-0.07-8.1-4.31-12.39-12.29-12.42c-16.13-0.06-32.27-0.05-48.4,0c-7.72,0.02-12.1,4.32-12.18,11.98
	c-0.1,8.98-0.08,17.96,0,26.95c0.07,7.89,4.2,12.04,12,12.11C-45.17,281.41-37.02,281.35-28.87,281.36z"/>
<path class="st2" d="M63.24,44.83c0,0.97,0,1.89,0,2.82c-0.83,0.14-1.82,0.04-2.37,0.49c-0.39,0.32-0.2,1.36-0.28,2.22
	c0.96,0,1.78,0,2.72,0c-0.09,1.03-0.18,1.92-0.27,2.89c-0.77,0-1.49,0-2.37,0c0,2.93,0,5.78,0,8.66c-1.23,0-2.3,0-3.47,0
	c0-2.84,0-5.63,0-8.52c-0.63-0.03-1.17-0.06-1.76-0.09c0-0.98,0-1.91,0-2.88c0.56-0.03,1.08-0.05,1.73-0.09c0-0.81-0.02-1.6,0-2.4
	c0.06-1.85,0.95-2.89,2.78-3.08C61.02,44.74,62.1,44.83,63.24,44.83z"/>
<path class="st3" d="M72.52,26.51c0.56,0.14,0.92,0.23,1.57,0.38c-1.45-1.61-1.97-3.17-1-5.13c2.16,2.29,4.65,3.77,7.84,3.94
	c0.07-0.62,0.08-1.18,0.21-1.72c0.54-2.39,3.13-3.67,5.34-2.68c1.76,0.79,1.76,0.79,3.73,0.11c-0.44,0.7-0.76,1.21-1.14,1.82
	c0.48-0.07,0.9-0.14,1.32-0.2c0.01,0.09,0.04,0.2,0.01,0.22c-1.45,1.05-1.54,2.63-1.84,4.22c-1.35,7.25-9.17,11.07-15.74,7.77
	c-0.18-0.09-0.35-0.21-0.45-0.27c1.62-0.48,3.24-0.97,4.89-1.46c-1.3-0.99-2.35-1.79-3.4-2.6c0.06-0.14,0.13-0.27,0.19-0.41
	c0.34-0.09,0.68-0.17,1.16-0.3C73.63,29.48,72.7,28.37,72.52,26.51z"/>
<path class="st4" d="M-28.87,281.35c-8.15,0-16.3,0.06-24.45-0.02c-7.81-0.07-11.93-4.22-12-12.11c-0.08-8.98-0.09-17.96,0-26.95
	c0.08-7.66,4.46-11.96,12.18-11.98c16.13-0.05,32.27-0.06,48.4,0c7.98,0.03,12.22,4.32,12.29,12.42c0.08,8.82,0.09,17.63-0.01,26.45
	c-0.09,8.06-4.31,12.14-12.46,12.19C-12.9,281.4-20.89,281.36-28.87,281.35z M-35.92,240.95c0,9.28,0,17.64,0,26.99
	c7.01-4.64,13.4-8.86,20.4-13.5C-22.48,249.85-28.81,245.66-35.92,240.95z"/>
<path d="M-35.92,240.95c7.11,4.7,13.44,8.89,20.4,13.5c-7.01,4.63-13.39,8.86-20.4,13.5C-35.92,258.59-35.92,250.23-35.92,240.95z"
	/>
<path class="st1" d="M21.46,36.19l-5.87,4.95c-1.2,1.01-3,0.86-4.01-0.34l-4.95-5.87c-1.01-1.2-0.86-3,0.34-4.01l5.87-4.95
	c1.2-1.01,3-0.86,4.01,0.34l4.95,5.87C22.81,33.39,22.66,35.18,21.46,36.19z"/>
</svg>
