<?xml version="1.0" encoding="utf-8"?>
<!-- Generator: Adobe Illustrator 24.3.0, SVG Export Plug-In . SVG Version: 6.00 Build 0)  -->
<svg version="1.1" id="Layer_1" xmlns="http://www.w3.org/2000/svg" xmlns:xlink="http://www.w3.org/1999/xlink" x="0px" y="0px"
	 viewBox="0 0 75.43 81.42" style="enable-background:new 0 0 75.43 81.42;" xml:space="preserve">
<style type="text/css">
	.st0{fill:#FFFFFF;}
</style>
<path class="st0" d="M9,70.35c0-0.16,0-0.32,0-0.47c1.56-4.34,3.22-8.64,4.61-13.03c0.35-1.1,0.22-2.64-0.29-3.68
	c-2.24-4.55-3.36-9.34-3.23-14.35c0.41-15.56,12.53-28.2,28.11-28.96c12.85-0.62,22.75,4.88,28.59,16.34
	c5.77,11.31,4.46,22.49-3.66,32.23c-8.1,9.71-18.94,13.27-30.99,9.51c-5.72-1.78-10.5-1.45-15.67,0.56
	c-1.46,0.57-2.97,1.03-4.49,1.43C11.01,70.17,9.99,70.21,9,70.35z M16.77,63.26c2.86-0.9,5.28-1.78,7.77-2.4
	c0.94-0.23,2.07-0.02,3.03,0.26c3.37,0.98,6.64,2.69,10.05,3.01c10.62,1.01,18.89-3.31,24.28-12.53c5.12-8.75,4.34-19.61-2.11-27.4
	c-6.68-8.08-15.41-11.31-25.71-8.79c-16.57,4.05-24.06,22.21-15.54,36.97c0.61,1.05,0.67,2.68,0.41,3.91
	C18.5,58.56,17.6,60.73,16.77,63.26z"/>
<path class="st0" d="M25.27,32.65c0.34-3.35,2.08-6.08,4.49-6.71c1.53-0.4,2.78-0.18,3.45,1.47c0.68,1.67,1.62,3.28,2,5.01
	c0.2,0.93-0.3,2.28-0.94,3.06c-1.09,1.33-1.18,2.34-0.15,3.72c2.11,2.82,4.61,5.08,7.78,6.69c1.72,0.88,2.98,0.8,3.92-0.89
	c1.28-2.3,2.93-2.46,4.99-1.06c0.58,0.39,1.28,0.59,1.91,0.9c3.15,1.53,3.45,4.73,0.59,6.88c-2.1,1.57-4.49,2.23-7.11,1.6
	c-9.47-2.27-15.82-8.31-20.04-16.82C25.59,35.35,25.56,33.94,25.27,32.65z"/>
</svg>
